<?xml version="1.0" encoding="utf-8"?>
<!-- Generator: Adobe Illustrator 16.0.3, SVG Export Plug-In . SVG Version: 6.00 Build 0)  -->
<!DOCTYPE svg PUBLIC "-//W3C//DTD SVG 1.1//EN" "http://www.w3.org/Graphics/SVG/1.1/DTD/svg11.dtd">
<svg version="1.1" id="Capa_1" xmlns="http://www.w3.org/2000/svg" xmlns:xlink="http://www.w3.org/1999/xlink" x="0px" y="0px"
	 width="1417.32px" height="1417.32px" viewBox="0 0 1417.32 1417.32" enable-background="new 0 0 1417.32 1417.32"
	 xml:space="preserve">
<g>
	<path fill-rule="evenodd" clip-rule="evenodd" fill="#010101" d="M1417.32,866.042c0,5.466,0,10.932,0,16.398
		c-22.355,0.03-44.709,0.132-67.061,0.021c-3.637-0.019-6.254,1.024-8.79,3.651c-8.6,8.899-17.445,17.56-26.16,26.347
		c-0.925,0.932-1.616,2.094-3.026,3.951c3.301,0,5.545-0.002,7.79,0c32.415,0.03,64.83,0.061,97.247,0.091
		c0,5.467,0,10.934,0,16.399c-1.898-0.003-3.795-0.012-5.691-0.012c-37.563,0-75.126,0.032-112.688-0.058
		c-2.985-0.008-5.071,0.938-7.129,3.044c-8.952,9.16-18.063,18.17-27.098,27.252c-0.819,0.825-1.507,1.787-3.044,3.635
		c2.455,0,3.811,0,5.164,0c48.055,0,96.109-0.003,144.165,0.009c2.106,0,4.212,0.124,6.321,0.19c0,5.468,0,10.934,0,16.4
		c-1.84-0.038-3.68-0.106-5.518-0.106c-54.361-0.007-108.724,0.015-163.083-0.06c-2.973-0.004-5.097,0.9-7.159,3.01
		c-8.813,9.012-17.779,17.87-26.66,26.813c-0.948,0.957-1.706,2.107-3.267,4.06c2.636,0,4.242,0,5.85,0
		c64.435,0,128.87-0.003,193.305,0.013c2.179,0,4.354,0.217,6.532,0.331c0,5.467,0,10.933,0,16.399
		c-2.404-0.124-4.807-0.346-7.208-0.356c-10.07-0.039-20.138-0.018-30.206-0.018c-59.777,0-119.554,0.044-179.332-0.086
		c-4.32-0.01-7.406,1.136-10.419,4.311c-8.235,8.674-16.854,16.984-25.284,25.473c-0.906,0.913-1.581,2.055-2.934,3.85
		c3.282,0,5.545,0,7.808,0c78.864,0,157.729,0.006,236.593-0.016c3.661-0.001,7.32-0.233,10.982-0.357c0,5.887,0,11.773,0,17.66
		c-2.883-0.187-5.763-0.537-8.644-0.538c-53.293-0.031-106.589-0.023-159.883-0.023c-32.732,0-65.465,0.09-98.196-0.103
		c-4.611-0.029-7.827,1.349-10.969,4.652c-7.951,8.372-16.254,16.409-24.407,24.589c-1.112,1.116-2.176,2.286-4.205,4.423
		c3.613,0,5.848,0,8.082,0c95.048,0.002,190.098,0.005,285.146-0.006c4.359-0.001,8.718-0.127,13.076-0.193
		c0,5.467,0,10.932,0,16.398c-2.316,0.123-4.633,0.344-6.946,0.35c-12.382,0.036-24.762,0.017-37.141,0.017
		c-91.063,0-182.125,0.022-273.188-0.076c-4.083-0.005-7.043,1.055-9.912,4.062c-8.407,8.809-17.148,17.299-25.734,25.936
		c-0.925,0.931-1.699,2.009-3.272,3.892c3.429,0,5.675,0,7.923,0c99.246,0,198.492,0.006,297.738-0.006
		c16.843-0.001,33.688-0.072,50.533-0.112c0,5.467,0,10.935,0,16.401c-3.072,0.03-6.146,0.09-9.22,0.091
		c-49.939,0.005-99.876,0.004-149.815,0.004c-69.452,0-138.907,0.031-208.357-0.081c-4.089-0.007-7.043,1.083-9.901,4.066
		c-8.423,8.797-17.155,17.292-25.732,25.94c-0.924,0.933-1.611,2.098-3.005,3.944c3.296,0,5.543,0,7.792,0
		c129.883,0,259.765-0.002,389.649,0.004c2.863,0,5.725,0.059,8.59,0.092c0,5.466,0,10.932,0,16.398
		c-2.947-0.002-5.895-0.01-8.838-0.01c-135.589,0-271.178,0-406.767,0c-1.261,0-2.534,0.13-3.774-0.025
		c-2.993-0.371-5.076,0.896-7.137,3.003c-8.956,9.164-18.067,18.173-27.104,27.259c-0.821,0.825-1.506,1.785-3.047,3.633
		c3.056,0,5.057,0,7.056,0c147.342,0.001,294.686,0,442.028,0.009c2.527,0,5.053,0.126,7.582,0.192c0,5.467,0,10.934,0,16.4
		c-6.668-0.038-13.332-0.105-20-0.106c-148.403-0.006-296.805-0.004-445.209-0.004c-1.47,0-2.954,0.135-4.404-0.028
		c-2.979-0.331-5.1,0.871-7.162,2.982c-8.812,9.011-17.779,17.871-26.66,26.815c-0.95,0.957-1.709,2.105-3.268,4.059
		c2.848,0,4.661,0,6.476,0c164.356-0.001,328.71-0.002,493.068,0.013c2.385,0,4.771,0.215,7.159,0.33c0,5.466,0,10.932,0,16.399
		c-5.545-0.069-11.087-0.195-16.633-0.195c-166.607-0.012-333.215-0.009-499.822-0.009c-1.259,0-2.533,0.127-3.773-0.026
		c-2.766-0.341-4.678,0.844-6.578,2.78c-8.971,9.142-18.083,18.145-27.111,27.23c-0.76,0.763-1.277,1.766-2.425,3.391
		c3.654,0,6.341,0,9.025,0c178.777,0,357.556,0.002,536.335-0.016c3.659-0.001,7.32-0.231,10.982-0.356c0,5.887,0,11.775,0,17.661
		c-2.88-0.187-5.757-0.537-8.638-0.537c-186.036-0.025-372.071-0.023-558.107-0.023c-1.259,0-2.604-0.285-3.757,0.063
		c-2.094,0.636-4.563,1.147-6.025,2.58c-9.887,9.692-19.553,19.609-29.289,29.455c-270.79,0-541.581,0-812.371,0
		c0-269.122,0-538.243,0-807.366c1.725-1.159,3.45-2.319,5.175-3.478c-0.175-0.382-0.35-0.765-0.526-1.147
		c-1.55-0.141-3.099-0.281-4.649-0.421c0-5.467,0-10.932,0-16.398c0.392,0.032,0.782,0.064,1.173,0.098
		c5.439,0.036,10.884-0.08,16.313,0.164c3.372,0.15,5.849-0.818,8.256-3.313c8.575-8.89,17.401-17.537,26.114-26.292
		c0.943-0.948,1.776-2.006,3.594-4.078c-3.363,0-5.365,0.001-7.367,0c-14.854-0.001-29.707,0.011-44.56-0.031
		c-1.175-0.004-2.349-0.396-3.523-0.608c0-5.467,0-10.933,0-16.399c0.418-0.027,0.835-0.054,1.253-0.082
		c0.201,0.06,0.403,0.168,0.604,0.169c22.649,0.091,45.299,0.233,67.948,0.143c1.803-0.007,3.982-1.247,5.339-2.575
		c9.598-9.402,19.031-18.973,28.492-28.514c0.369-0.372,0.488-0.991,0.966-2.018c-2.02-0.106-3.618-0.263-5.216-0.264
		c-31.05-0.015-62.099-0.017-93.148,0.008c-1.662,0.001-3.323,0.272-4.984,0.418c-0.417-0.028-0.835-0.056-1.254-0.083
		c0-5.467,0-10.933,0-16.4c1.439-0.121,2.877-0.348,4.317-0.349c37.507-0.02,75.015-0.065,112.521,0.058
		c3.835,0.013,6.68-0.882,9.411-3.73c8.416-8.779,17.131-17.268,25.702-25.897c1.079-1.087,1.991-2.339,3.606-4.26
		c-5.638,0-10.194-0.003-14.75,0.001c-46.937,0.038-93.872,0.078-140.808,0.117c0-5.467,0-10.933,0-16.399
		c1.459-0.067,2.919-0.191,4.378-0.191c54.092-0.009,108.182-0.005,162.273-0.011c3.099,0,6.009,0.219,8.625-2.5
		c9.311-9.674,18.909-19.071,28.378-28.592c0.53-0.534,0.883-1.247,1.935-2.767c-69.121,0-137.355,0-205.589,0
		c0-5.467,0-10.933,0-16.399c0.625-0.051,1.25-0.146,1.874-0.146c71.946,0.012,143.893,0.008,215.839,0.116
		c3.607,0.005,6.266-0.898,8.823-3.545c8.751-9.057,17.757-17.868,26.622-26.815c0.883-0.892,1.467-2.081,2.495-3.576
		c-3.122,0-5.428,0-7.734,0c-74.044,0-148.089,0.003-222.133-0.003c-8.595-0.001-17.189-0.06-25.785-0.091c0-5.467,0-10.933,0-16.4
		c0.432-0.029,0.863-0.06,1.294-0.088c6.918,0.063,13.836,0.18,20.753,0.181c81.579,0.012,163.158-0.031,244.736,0.111
		c4.604,0.008,7.802-1.303,10.944-4.607c8.241-8.668,16.845-16.989,25.27-25.483c0.919-0.925,1.607-2.081,2.924-3.814
		c-2.826,0-4.669,0-6.512,0c-97.727,0-195.455,0.003-293.181-0.015c-2.075,0-4.152-0.225-6.228-0.344c0-5.467,0-10.933,0-16.4
		c0.419-0.057,0.837-0.113,1.256-0.17c1.243,0.125,2.488,0.357,3.731,0.357c104.657,0.018,209.314,0.002,313.971,0.085
		c3.219,0.003,5.458-0.938,7.683-3.226c8.63-8.88,17.454-17.572,26.193-26.346c0.951-0.954,1.824-1.986,3.473-3.793
		c-3.167-0.144-5.173-0.314-7.18-0.314c-113.885-0.013-227.77-0.015-341.655,0.015c-2.491,0-4.981,0.387-7.472,0.593
		c0-5.886,0-11.774,0-17.661c0.418-0.028,0.835-0.056,1.253-0.083c2.502,0.145,5.003,0.416,7.504,0.417
		c119.213,0.021,238.427,0.018,357.64,0.018c1.259,0,2.527-0.1,3.776,0.02c2.533,0.244,4.331-0.854,6.064-2.617
		c9.431-9.58,18.952-19.07,28.417-28.616c0.368-0.372,0.487-0.991,1.092-2.292c-2.789,0-5.012,0-7.237,0
		c-129.917,0-259.833-0.002-389.751,0.019c-2.501,0-5.002,0.276-7.504,0.424c-0.417-0.029-0.835-0.059-1.254-0.088
		c0-5.887,0-11.774,0-17.661c2.701,0.208,5.403,0.595,8.105,0.596c129.089,0.03,258.177,0.027,387.265,0.027
		c7.977,0,15.957-0.132,23.927,0.063c3.222,0.079,5.503-0.984,7.726-3.265c8.8-9.021,17.767-17.881,26.662-26.812
		c0.807-0.811,1.532-1.702,3.151-3.515c-3.242,0-5.259,0-7.276,0c-147.14,0-294.28-0.001-441.419,0.017
		c-2.294,0-4.588,0.233-6.883,0.359c-0.419-0.091-0.838-0.18-1.257-0.271c0-5.466,0-10.933,0-16.399
		c1.041-0.07,2.082-0.201,3.122-0.201c154.208-0.005,308.417,0,462.625,0.004c1.468,0,2.95-0.12,4.403,0.025
		c2.531,0.253,4.342-0.786,6.084-2.551c9.437-9.567,18.964-19.045,28.439-28.574c0.53-0.533,0.882-1.247,1.93-2.765
		c-169.461,0-338.032,0-506.604,0c0-5.466,0-10.933,0-16.399c0.415-0.059,0.831-0.17,1.245-0.17
		c87.714,0.02,175.427,0.057,263.14,0.07c84.566,0.014,169.132-0.02,253.698,0.071c4.034,0.005,7.039-0.93,9.928-3.963
		c8.545-8.969,17.447-17.595,26.165-26.4c0.883-0.89,1.466-2.079,2.492-3.573c-2.496,0-4.173,0-5.85,0
		c-181.303,0-362.606,0.001-543.91-0.003c-2.303,0-4.606-0.061-6.909-0.093c0-5.467,0-10.934,0-16.4
		c2.937,0.002,5.875,0.006,8.812,0.006c185.524,0,371.048,0,556.572,0c1.469,0,2.958-0.157,4.404,0.03
		c3.239,0.421,5.482-0.948,7.701-3.225c8.798-9.022,17.776-17.867,26.656-26.81c0.927-0.933,1.645-2.074,3.043-3.867
		c-3.305,0-5.566,0-7.827,0c-196.858,0-393.715,0.001-590.571-0.008c-2.93,0-5.86-0.123-8.79-0.188c0-1.261,0-2.522,0-3.784
		c472.595,0,945.189,0,1418.188,0c0,271.224,0,542.448,0,813.673c-1.524,0.993-3.049,1.986-4.814,3.137
		c2.165,0.86,3.49,1.385,4.814,1.909c0,5.046,0,10.092,0,15.138c-5.848,0.989-11.733,0.231-17.596,0.266
		c-3.201,0.018-5.475,0.971-7.696,3.246c-8.922,9.138-18.021,18.101-27.025,27.154c-0.769,0.773-1.333,1.754-2.567,3.414
		c3.083,0,5.119,0.001,7.154,0C1385.5,866.054,1401.41,866.045,1417.32,866.042z M912.825,665.339
		c-0.581,0.037-1.164,0.075-1.747,0.111c-0.229-0.741-0.458-1.483-0.972-3.151c-0.89,1.971-1.527,3.012-1.845,4.143
		c-2.769,9.874-5.855,19.68-8.14,29.667c-8.028,35.087-15.812,70.229-23.597,105.372c-1.713,7.738-3.05,15.56-4.561,23.342
		c-6.415,4.579-12.829,9.157-20.003,14.274c0,0.673,0,2.479,0,4.874c9.641-0.001,19.086,0.194,28.647-0.102
		c0.088-1.955,0.247-3.001,0.165-4.025c-0.624-7.726,2.015-14.115,6.784-20.228c11.343-14.528,21.62-29.837,30.203-46.18
		c5.621-10.699,10.639-21.718,15.929-32.593c1.829,4.218,3.508,8.51,5.515,12.64c11.113,22.848,24.395,44.418,39.412,64.853
		c5.018,6.829,8.429,13.824,8.995,22.227c0.054,0.804,0.228,1.6,0.361,2.509c1.232,0.114,2.252,0.208,3.274,0.302
		c7.951,2.237,15.936,0.617,24.064,0.756c0.194-1.543,0.42-2.56,0.42-3.575c0.003-1.02-0.224-2.04-0.336-2.97
		c-2.698-1.223-5.273-2.166-7.629-3.5c-6.823-3.869-11.887-9.132-13.55-17.2c-2.919-14.155-5.862-28.31-9.063-42.403
		c-7.895-34.745-15.928-69.457-23.948-104.173c-0.636-2.755-1.594-5.436-2.763-9.366c-3.233,14.269-6.25,27.089-8.976,39.97
		c-0.685,3.223-0.438,6.642-0.618,9.972c-0.409,0.021-0.817,0.013-1.225-0.029c-0.83-1.911-1.66-3.823-2.49-5.734
		c0.184-1.858,0.207-3.75,0.586-5.567c1.631-7.779,3.624-15.489,5.008-23.309c3.238-18.316,7.229-36.568,6.64-55.338
		c-0.172-5.428-0.82-10.839-1.251-16.258c3.067-1.256,6.055-2.776,9.215-3.72c12.069-3.607,24.538-3.249,36.78-2.129
		c18.273,1.67,36.407,4.805,54.66,6.758c9.722,1.04,19.533,2.712,29.358,0.754c1.441-0.288,2.76-1.21,4.307-1.917
		c-1.937-4.171-5.268-4.972-8.435-5.875c-7.491-2.137-14.972-0.735-22.354,0.605c-3.06,0.555-5.643,0.357-8.461-0.895
		c-20.171-8.965-41.66-11.956-63.394-13.732c-6.251-0.511-12.572-0.458-18.755-1.38c-13.339-1.986-23.877-14.115-16.882-28.997
		c1.245-2.649,2.491-5.308,3.933-7.848c6.671-11.73,15.405-21.896,24.275-31.961c1.454-1.65,2.964-2.5,5.307-2.621
		c8.136-0.416,14.607-4.782,20.645-9.713c1.761-1.438,2.729-3.851,4.277-6.137c-5.428-3.166-9.655-1.125-13.819,0.646
		c-15.362,6.533-27.603,17.397-38.903,29.246c-8.505,8.918-16.141,18.667-24.163,28.046c-4.708-5.334-9.344-10.736-14.141-15.991
		c-12.604-13.807-25.602-27.211-41.812-36.881c-4.272-2.549-8.964-4.421-13.546-6.411c-2.078-0.902-4.297-0.653-5.457,1.605
		c-1.072,2.091-0.438,4.104,1.272,5.696c6.087,5.667,12.487,10.813,21.501,10.002c2.889-0.259,4.826,0.813,6.474,2.876
		c5.488,6.881,11.234,13.58,16.342,20.736c4.129,5.786,7.958,11.894,11.075,18.272c6.463,13.222,1.905,26.23-13.976,28.675
		c-3.083,0.475-6.216,0.692-9.336,0.857c-4.81,0.254-9.683-0.046-14.433,0.601c-20.953,2.852-41.661,6.942-61.838,13.403
		c-4.271,1.369-8.229,1.807-12.805,0.491c-4.08-1.175-8.717-0.721-13.083-0.513c-4.656,0.223-8.711,2.276-12.519,5.12
		c1.568,4.333,4.96,5.718,8.45,6.003c4.115,0.335,8.386,0.174,12.449-0.551c11.923-2.129,23.722-4.982,35.67-6.929
		c17.654-2.877,35.438-2.825,53.184-0.723c8.274,0.98,16.589,2.048,24.13,6.069c-0.596,8.94-1.891,17.901-1.606,26.813
		C910.049,643.803,911.727,654.562,912.825,665.339z M583.426,994.714c-0.655-0.013-1.313-0.026-1.969-0.041
		c1.556-14.925,3.113-29.85,4.664-44.724c-5.699-2.11-10.725-3.975-16.049-5.945c-10.415,27.415-20.6,54.229-30.977,81.547
		c3.946,1.567,7.508,2.984,11.436,4.547c6.992-18.32,13.752-36.03,20.513-53.742c0.513,0.11,1.025,0.221,1.539,0.331
		c-2.143,19.744-4.285,39.488-6.449,59.424c4.609,1.655,8.69,3.122,13.29,4.774c10.402-27.414,20.621-54.349,30.985-81.667
		c-4.141-1.504-7.597-2.761-11.33-4.116c-0.721,1.642-1.252,2.746-1.698,3.886C592.721,970.893,588.076,982.804,583.426,994.714z
		 M859.289,990.92c-9.673-13.145-19.347-26.291-29.241-39.738c-5.574,2.247-10.683,4.306-16.022,6.458
		c11.216,27.35,21.422,54.31,32.747,81.289c4.124-1.902,7.436-3.428,10.833-4.993c-6.328-17.892-14.187-34.438-19.986-51.737
		c0.485-0.264,0.971-0.53,1.456-0.796c11.376,15.439,22.749,30.879,34.351,46.627c4.47-1.863,8.588-3.579,13.064-5.442
		c-10.979-27.453-21.674-54.194-32.434-81.098c-4.228,1.791-7.624,3.229-11.394,4.828c5.998,14.846,11.802,29.205,17.605,43.565
		C859.942,990.228,859.616,990.576,859.289,990.92z M448.659,640.445c0,3.182,0,5.643,0,8.105c0,35.291,0,70.581,0,105.87
		c0,21.216-0.023,42.433,0.032,63.649c0.006,2.384,0.453,4.766,0.721,7.395c10.226,0,19.65,0.002,29.075-0.001
		c1.887-0.001,3.802,0.185,5.657-0.065c8.475-1.145,17.05-1.888,25.367-3.766c11.656-2.631,18.741-10.147,18.632-23.276
		c-0.103-12.184-0.036-24.367-0.021-36.552c0.007-6.738-1.955-12.94-6.095-18.129c-3.702-4.64-8.105-8.719-12.339-13.193
		c0.33-0.259,0.929-0.794,1.589-1.237c9.79-6.56,13.697-15.897,13.336-27.475c-0.189-6.078,0.26-12.173,0.271-18.261
		c0.009-5.011,0.164-10.063-0.387-15.026c-1.585-14.28-14.674-27.373-28.76-27.908C480.465,639.998,465.154,640.445,448.659,640.445
		z M537.132,642.721c0,2.416,0,4.066,0,5.717c0,56.337,0,112.674,0.001,169.012c0,1.052-0.002,2.102,0.013,3.153
		c0.035,2.49,1.17,3.874,3.782,4.027c3.547,0.206,7.084,0.772,10.628,0.799c13.009,0.099,26.02,0.105,39.028-0.013
		c2.842-0.025,5.679-0.713,9.123-1.177c0-9.184,0.04-17.752-0.014-26.319c-0.035-5.596-0.501-6.049-6.123-6.092
		c-6.926-0.054-13.854,0.063-20.778-0.043c-4.421-0.069-5.43-0.813-5.481-4.987c-0.129-10.71-0.077-21.428,0.183-32.137
		c0.094-3.801,1.297-4.662,5.129-4.749c4.825-0.109,9.654,0.006,14.481-0.037c5.844-0.053,6.163-0.371,6.304-5.927
		c0.148-5.88,0.311-11.761,0.407-17.642c0.06-3.736,0.011-7.475,0.011-11.516c-8.969-1.644-17.752,1.454-26.281-2.327
		c0-12.542,0-25.064,0-38.007c10.267-2.367,20.586,0.011,30.916-1.555c0-10.083,0-19.822,0-30.182
		C578.022,642.721,557.99,642.721,537.132,642.721z M715.861,670.3c-0.036-9.612,1.487-18.347-0.239-27.968
		c-22.577,1.299-44.888-1.652-68.063,0.46c0,3.049,0,5.511,0,7.975c0,46.029,0,92.058,0,138.087c0,9.458-0.038,18.917,0.014,28.373
		c0.029,5.493,0.318,5.732,5.487,6.145c1.458,0.116,2.909,0.323,4.362,0.499c8.171,0.987,16.131-0.389,24.566-1.5
		c0-2.72,0-4.796,0-6.869c0.001-17.445-0.055-34.89,0.049-52.334c0.022-3.693,0.628-7.385,1.042-11.922c4.965,0,9.322,0,13.681,0
		c4.327,0,8.655,0,12.805,0c2.021-9.057,1.886-27.489-0.204-34.003c-1.483-0.086-3.114-0.258-4.747-0.258
		c-5.875-0.003-11.751,0.14-17.624,0.06c-4.186-0.058-4.91-0.637-4.953-4.709c-0.124-12.189-0.13-24.381,0.003-36.57
		c0.042-3.883,1.382-4.961,5.583-5.021c6.923-0.1,13.849,0.001,20.773-0.046C710.654,670.681,712.909,670.463,715.861,670.3z
		 M960.476,483.435c-8.114-8.635-15.477-16.98-23.4-24.75c-8.074-7.918-16.492-15.518-25.127-22.824
		c-45.479-38.48-97.094-64.58-155.566-76.606c-19.502-4.012-39.229-6.336-59.153-6.431c-10.463-0.048-20.934,0.398-31.395,0.81
		c-18.013,0.709-35.749,3.56-53.332,7.396c-18.886,4.123-37.007,10.591-54.71,18.278c-40.015,17.372-75.889,40.961-106.738,71.93
		c-45.382,45.558-74.531,100.166-89.817,162.464c-6.122,24.947-9.006,50.275-9.24,75.911c-0.154,16.996,1.125,33.913,3.617,50.741
		c3.232,21.829,8.595,43.104,15.914,63.907c8.874,25.225,20.547,49.09,34.58,71.815c0.731,1.184,1.682,2.231,2.752,3.632
		c1.907-1.417,3.491-2.596,5.1-3.792c-18.745-29.757-33.061-60.875-42.552-94.182c-6.275-22.021-10.425-44.432-11.73-67.287
		c-0.669-11.714-0.575-23.486-0.456-35.229c0.199-19.752,3.118-39.189,7.284-58.471c5.204-24.078,13.13-47.23,23.44-69.559
		c16.054-34.77,37.046-66.187,64.042-93.437c30.623-30.913,66.196-54.525,105.909-72.086c32.863-14.534,67.247-22.822,103.01-25.199
		c13.563-0.902,27.138-1.427,40.823-0.726c14.677,0.751,29.25,2.077,43.637,4.642c30.216,5.385,59.19,14.847,86.789,28.426
		c38.944,19.161,73.158,44.756,103.265,75.952c6.063,6.284,11.969,12.722,18.044,19.193
		C957.137,486.447,958.511,485.208,960.476,483.435z M818.938,823.9c0-50.74,0-100.665,0-151.142c2.414-0.29,4.411-0.679,6.42-0.739
		c3.77-0.109,7.547,0.035,11.32-0.044c4.777-0.1,5.182-0.417,5.248-4.898c0.089-6.087,0.118-12.183-0.085-18.267
		c-0.224-6.722-0.715-7.105-7.348-7.112c-20.549-0.018-41.096-0.018-61.644,0c-6.214,0.006-7.711,1.23-8.046,7.617
		c-0.308,5.863-0.219,11.76-0.005,17.631c0.157,4.313,0.942,4.902,5.424,5.019c3.98,0.103,7.969-0.022,11.95,0.034
		c5.354,0.074,5.483,0.238,5.596,5.806c0.023,1.26,0.004,2.52,0.004,3.78c0,44.521-0.001,89.042,0.001,133.563
		c0,1.68-0.404,3.53,0.169,4.992c0.602,1.531,2.056,3.726,3.306,3.843C800.163,824.818,809.119,825.177,818.938,823.9z
		 M426.311,866.471c-16.631-26.392-29.505-53.851-38.459-83.132c-7.016-22.948-11.492-46.381-13.112-70.308
		c-0.793-11.712-1.211-23.424-0.623-35.233c1.046-21.026,3.877-41.72,8.813-62.138c6.193-25.622,15.573-50.04,27.924-73.329
		c16.889-31.847,38.518-60.061,65.058-84.38c36.44-33.392,78.295-57.453,125.583-71.934c22.921-7.02,46.394-11.23,70.249-12.862
		c19.673-1.346,39.344-0.626,58.971,1.93c28.656,3.731,56.246,11.213,82.726,22.674c46.562,20.155,86.137,49.97,119.863,87.759
		c3.461,3.882,6.962,7.732,10.686,11.862c1.812-1.591,3.274-2.876,4.773-4.193c-0.767-1.077-1.202-1.795-1.737-2.429
		c-28.877-34.147-62.243-62.93-101.396-84.716c-40.313-22.433-83.473-35.79-129.468-39.261c-18.173-1.371-36.414-1.055-54.65,0.593
		c-22.65,2.046-44.758,6.599-66.324,13.498c-47.876,15.314-90.52,40.011-126.754,74.897
		c-66.484,64.012-100.063,142.591-101.327,234.96c-0.086,6.283,0.566,12.572,0.792,18.862c0.574,15.971,2.89,31.719,6.182,47.323
		c8.226,38.992,23.055,75.329,44.067,109.151c0.843,1.357,1.854,2.61,2.902,4.072c1.25-0.746,2.156-1.231,3-1.81
		C424.727,867.863,425.33,867.285,426.311,866.471z M935.7,502.727c-0.541-0.976-0.689-1.384-0.952-1.698
		c-33.442-40.069-73.278-71.728-121.215-92.859c-31.905-14.063-65.22-22.577-99.927-24.983c-24.482-1.697-48.968-0.832-73.259,3.432
		c-27.362,4.802-53.65,12.931-78.79,24.762c-35.277,16.604-66.369,39.08-93.211,67.348c-22.246,23.428-40.474,49.708-54.52,78.868
		c-11.427,23.722-20.148,48.381-24.708,74.337c-2.458,13.991-4.606,28.128-5.442,42.285c-0.789,13.355,0.162,26.829,0.646,40.239
		c0.516,14.267,2.958,28.308,6.024,42.211c7.464,33.844,20.249,65.622,37.627,95.563c1.853,3.191,3.884,6.28,5.98,9.653
		c2.08-1.511,3.568-2.592,5.042-3.664c-0.307-0.88-0.408-1.521-0.725-2.026c-9.888-15.875-18.289-32.514-25.338-49.833
		c-14.772-36.289-22.703-74-23.056-113.225c-0.066-7.329,0.458-14.666,0.793-21.996c0.834-18.265,3.937-36.202,8.455-53.868
		c8.972-35.076,23.792-67.525,44.415-97.288c18.908-27.285,41.616-50.869,68.197-70.776c32.12-24.055,67.612-40.953,106.382-51.025
		c17.847-4.637,36.041-7.389,54.394-8.638c18.625-1.268,37.229-0.455,55.801,1.927c32.461,4.163,63.346,13.382,92.775,27.648
		c33.741,16.358,63.468,38.248,89.479,65.221c6.951,7.209,13.591,14.721,20.873,22.637
		C932.979,505.446,934.405,504.021,935.7,502.727z M723.541,731.81c-0.135,0-0.27,0-0.406,0c0,27.519-0.008,55.036,0.019,82.554
		c0.001,2.092,0.058,4.22,0.446,6.263c0.404,2.136,1.472,4.027,4.046,4.105c7.501,0.228,15.005,0.556,22.505,0.488
		c2.475-0.022,4.097-2.018,4.479-4.566c0.247-1.652,0.299-3.346,0.3-5.021c0.015-54.412,0.019-108.824-0.009-163.236
		c-0.001-2.087-0.115-4.217-0.549-6.248c-0.474-2.211-1.852-3.577-4.409-3.645c-6.912-0.183-13.819-0.634-20.731-0.765
		c-4.103-0.079-5.22,1.042-5.65,4.99c-0.158,1.454-0.037,2.939-0.037,4.409C723.541,678.028,723.541,704.919,723.541,731.81z
		 M733.438,220.601c-1.195,6.909-0.952,77.863,0.21,82.25c3.508,0,6.979,0,11.042,0c0-18.396,0-36.422,0-54.449
		c0.394-0.048,0.787-0.096,1.181-0.144c4.793,18.28,9.586,36.562,14.328,54.644c4.775,0,8.887,0,12.941,0
		c1.216-8.681,0.851-78.033-0.33-82.137c-3.528,0-6.975,0-10.766,0c0,14.287,0,28.135-0.006,41.984c0,0.186-0.04,0.432-0.159,0.543
		c-0.138,0.13-0.382,0.153-0.586,0.204c-0.185,0.045-0.377,0.065-0.858,0.146c-3.71-14.312-7.429-28.652-11.159-43.041
		C743.703,220.601,738.545,220.601,733.438,220.601z M621.37,220.644c0,14.906,0,29.507,0,44.106
		c-0.356,0.022-0.71,0.046-1.066,0.068c-3.826-14.754-7.651-29.508-11.538-44.495c-2.878,0-5.374,0-7.869,0
		c-2.674,0-5.348,0-7.899,0c-1.333,9.197-0.929,78.522,0.36,82.641c3.331,0,6.633,0,10.577,0c0-4.809,0-9.374,0-13.94
		c0-4.625,0-9.25,0-13.875c0-4.625-0.121-9.255,0.035-13.875c0.146-4.337-0.66-8.772,1.453-13.094
		c4.815,18.358,9.629,36.714,14.328,54.629c4.973,0,9.064,0,13.208,0c0-27.663,0-54.905,0-82.166
		C629.07,220.644,625.581,220.644,621.37,220.644z M477.166,303.202c8.002,0,15.352,0.268,22.673-0.075
		c7.633-0.356,14.783-3.225,16.396-11.251c2.366-11.771,4.792-24.201-7.178-33.313c4.938-2.828,6.733-7.247,7.147-12.243
		c0.294-3.54,0.355-7.165-0.063-10.683c-1.121-9.397-5.449-14.122-14.888-14.95c-7.858-0.689-15.824-0.142-24.089-0.142
		C477.166,248.106,477.166,275.313,477.166,303.202z M778.501,1056.358c12.43,0.181,24.132-8.177,20.742-25.282
		c-1.628-8.214-2.733-16.53-4.222-24.774c-1.56-8.654-3.036-17.337-5.038-25.893c-1.548-6.604-5.909-11.16-12.6-12.768
		c-7.257-1.745-14.247-0.531-20.347,3.842c-7.26,5.206-8.151,12.872-6.863,20.912c1.854,11.581,3.971,23.124,6.131,34.654
		c1.115,5.953,2.015,12.036,3.994,17.717C763.083,1052.755,769.301,1056.557,778.501,1056.358z M534.139,924.075
		c-10.106,15.642-19.89,30.796-29.687,45.942c-2.734,4.226-5.334,8.554-8.31,12.604c-2.545,3.465-5.427,3.878-8.759,1.871
		c-3.587-2.159-4.457-5.084-2.579-9.137c0.612-1.322,1.479-2.53,2.272-3.764c10.899-16.94,21.817-33.869,32.697-50.822
		c0.859-1.339,1.476-2.832,2.318-4.476c-3.848-2.433-7.333-4.636-11.245-7.11c-4.222,6.512-8.212,12.636-12.169,18.778
		c-8.185,12.702-16.384,25.393-24.508,38.131c-3.257,5.108-5.273,10.701-3.53,16.745c2.445,8.472,8.943,13.001,16.962,15.25
		c7.471,2.093,13.546-0.886,18.417-6.591c1.221-1.43,2.323-2.978,3.346-4.558c8.097-12.504,16.164-25.026,24.235-37.547
		c3.828-5.938,7.646-11.881,11.614-18.047C541.365,928.821,538.064,926.654,534.139,924.075z M807.98,220.407
		c0,27.949,0,55.136,0,82.745c7.656,0,14.975,0.383,22.238-0.091c10.45-0.683,16.487-7.039,16.667-17.617
		c0.27-15.74,0.264-31.49,0.008-47.23c-0.172-10.615-6.139-16.997-16.571-17.711C823.057,220.004,815.729,220.407,807.98,220.407z
		 M963.848,976.629c-20.57-22.026-40.516-43.38-60.497-64.775c-5.514,3.719-10.339,6.975-15.487,10.447
		c12.284,26.876,24.424,53.436,36.805,80.523c3.94-2.624,7.17-4.775,10.502-6.996c-2.463-5.521-4.72-10.576-7.058-15.813
		c4.537-2.983,8.489-5.582,12.643-8.314c4.031,4.31,7.713,8.245,11.66,12.463C956.209,981.663,959.65,979.395,963.848,976.629z
		 M894.842,261.632c0-7.977,0.187-15.959-0.045-23.929c-0.335-11.665-7.561-18.498-19.284-18.615
		c-12.092-0.121-19.544,6.735-20.001,18.589c-0.184,4.821-0.043,9.655-0.042,14.483c0.001,11.125-0.116,22.252,0.054,33.375
		c0.111,7.123,2.6,13.185,9.331,16.644c14.751,7.585,29.765-1.367,29.98-17.876C894.932,276.747,894.852,269.189,894.842,261.632z
		 M672.492,1001.639c0.598-5.688,1.382-10.225,1.483-14.776c0.162-7.271-2.684-13.271-9.517-16.355
		c-7.556-3.411-15.437-4.346-22.755,0.641c-4.762,3.242-6.798,8.383-7.739,13.931c-1.224,7.22-2.478,14.437-3.554,21.68
		c-1.508,10.141-3.551,20.266-4.116,30.466c-0.766,13.819,11.031,22.842,24.664,19.851c3.787-0.832,7.216-2.206,9.741-5.276
		c6.089-7.402,6.4-16.266,7.149-25.32c-4.683-0.577-8.5-1.049-12.318-1.519c-0.564,3.029-0.979,5.293-1.411,7.553
		c-0.471,2.468-0.784,4.984-1.478,7.389c-1.368,4.736-6.858,7.228-11.348,2.404c-1.368-1.469-1.553-4.717-1.22-6.994
		c2.364-16.151,4.947-32.271,7.591-48.378c0.819-4.985,3.932-7.044,8.452-6.062c3.784,0.823,5.388,3.877,4.68,8.768
		c-0.468,3.232-0.853,6.477-1.317,10.053C663.828,1000.341,667.681,1000.919,672.492,1001.639z M940.117,243.203
		c0-2.602,0.144-4.899-0.025-7.171c-0.795-10.607-7.354-16.72-18.071-16.959c-11.372-0.254-18.649,5.917-19.853,16.65
		c-1.052,9.373,1.595,17.434,8.239,24.106c3.845,3.862,7.903,7.513,11.731,11.393c4.039,4.095,5.99,9.04,5.296,14.868
		c-0.516,4.34-2.416,6.144-6.436,6.17c-4.056,0.026-5.866-1.601-6.515-6.033c-0.352-2.407-0.53-4.839-0.808-7.458
		c-2.391,0-4.269-0.047-6.143,0.013c-1.781,0.058-3.559,0.23-5.334,0.352c0,3.728-0.316,6.897,0.062,9.983
		c1.007,8.218,5.822,13.488,13.933,14.823c3.42,0.563,7.105,0.351,10.548-0.233c7.422-1.259,11.714-6.075,13.304-13.317
		c2.208-10.073,0.297-19.192-6.742-26.928c-2.394-2.63-5.124-4.95-7.615-7.496c-2.632-2.691-5.443-5.274-7.661-8.285
		c-2.55-3.461-3.731-7.507-2.401-11.889c1.047-3.449,2.978-4.729,6.53-4.507c3.225,0.202,4.951,1.969,5.394,5.079
		c0.315,2.232,0.549,4.477,0.834,6.84C932.436,243.203,936.112,243.203,940.117,243.203z M662.832,280.188
		c-0.347-0.001-0.693-0.002-1.041-0.003c-2.683-19.835-5.365-39.671-8.046-59.501c-4.693,0-8.798,0-13.284,0
		c4.208,27.685,8.354,54.967,12.486,82.145c6.206,0,11.748,0,17.531,0c4.171-27.487,8.288-54.625,12.46-82.121
		c-4.25,0-8.114,0-12.112,0c-1.382,10.105-2.732,19.858-4.044,29.617C665.446,260.276,664.147,270.233,662.832,280.188z
		 M549.255,220.45c-1.315,9.206-0.912,78.321,0.354,82.408c11.479,0,22.915,0,34.419,0c0-4.03,0-7.667,0-11.786
		c-7.468,0-14.504,0-21.796,0c0-8.594,0-16.693,0-25.479c5.921,0,11.635,0,17.209,0c0-4.166,0-7.638,0-11.642
		c-5.906,0-11.469,0-17.189,0c0-7.375,0-14.194,0-21.722c7.472,0,14.673,0,21.721,0c0-4.366,0-8.012,0-11.779
		C572.179,220.45,560.886,220.45,549.255,220.45z M689.502,302.801c12.101,0,23.525,0,34.979,0c0-3.94,0-7.462,0-11.699
		c-7.438,0-14.647,0-21.902,0c0-8.782,0-16.838,0-25.4c5.976,0,11.552,0,17.158,0c0-4.141,0-7.75,0-11.91c-6.058,0-11.62,0-17.188,0
		c0-7.39,0-14.211,0-21.498c7.448,0,14.516,0,21.848,0c0-4.13,0-7.779,0-11.656c-11.755,0-23.176,0-34.895,0
		C689.502,248.134,689.502,275.327,689.502,302.801z M463.856,916.447c-5.089-4.383-9.302-8.011-14.061-12.107
		c6.203-5.777,11.83-11.021,17.584-16.38c5.116,4.826,10.366,9.779,14.206,13.403c3.756-2.906,6.855-5.305,10.045-7.772
		c-8.826-8.441-17.281-16.528-26.13-24.992c-20.24,21.082-40.196,41.869-60.535,63.054c3.624,3.394,6.742,6.316,10.052,9.418
		c9.033-9.332,17.576-18.16,26.227-27.096c4.468,4.128,8.582,7.928,12.599,11.64C457.028,922.699,459.791,920.169,463.856,916.447z
		 M996.099,930.457c-17.553-17.127-35.185-34.332-52.684-51.407c-3.459,3.303-6.586,6.288-9.985,9.532
		c20.92,20.467,41.561,40.657,62.467,61.11c8.586-8.849,16.833-17.347,24.049-24.781c-3.06-3.482-5.61-6.388-8.593-9.784
		C1006.382,920.121,1001.393,925.138,996.099,930.457z M695.669,1183.921c0-10.241,0-19.868,0-29.496
		c0.315-0.016,0.632-0.032,0.946-0.051c1.533,9.839,3.065,19.676,4.605,29.567c2.488,0,4.524,0,6.906,0
		c1.49-9.367,2.951-18.554,4.413-27.741c0.516,0.026,1.031,0.054,1.547,0.081c0,9.215,0,18.429,0,28
		c3.123-0.167,5.307-0.284,7.386-0.394c0-17.415,0-34.297,0-51.014c-4.104,0-7.757,0-11.402,0
		c-1.554,10.762-3.04,21.047-4.525,31.333c-0.381-0.02-0.762-0.042-1.142-0.062c-1.53-10.511-3.059-21.02-4.579-31.458
		c-4.087,0-7.575,0-11.372,0c0,17.188,0,34.078,0,51.233C690.719,1183.921,692.746,1183.921,695.669,1183.921z M718.563,1060.996
		c-0.169-29.612,0.298-58.454-0.671-87.165c-4.938,0-9.045,0-13.04,0c0,29.247,0,58.099,0,87.165
		C709.517,1060.996,713.609,1060.996,718.563,1060.996z M784.462,220.607c0,27.665,0,54.859,0,82.254c4.409,0,8.467,0,12.688,0
		c0-27.574,0-54.768,0-82.254C792.909,220.607,788.989,220.607,784.462,220.607z M864.367,1183.843c3.164,0,5.813,0,8.281,0
		c0-17.295,0-34.222,0-51.162c-2.439,0-4.449,0-7.166,0c0,8.571,0,16.867,0,25.165c-0.367,0.024-0.734,0.047-1.103,0.07
		c-2.236-8.42-4.473-16.84-6.724-25.31c-3.485,0-6.573,0-10.005,0c0,17.149,0,34.064,0,51.247c2.308,0,4.471,0,6.945,0
		c0-3.684,0-7.022,0-10.36c0-3.153-0.111-6.31,0.031-9.456c0.14-3.085-0.696-6.341,0.586-9.271c0.47-0.029,0.94-0.059,1.411-0.089
		C859.177,1164.292,861.729,1173.906,864.367,1183.843z M629.274,1132.625c0,17.57,0,34.431,0,51.276c2.484,0,4.516,0,6.971,0
		c0-10.889,0-21.494,0-32.099c0.357-0.061,0.714-0.122,1.071-0.18c2.864,10.773,5.729,21.548,8.549,32.156c3.067,0,5.664,0,8.073,0
		c0-17.306,0-34.194,0-51.041c-2.392,0-4.389,0-7.028,0c0,8.349,0,16.355,0,24.364c-0.406,0.049-0.813,0.097-1.219,0.146
		c-2.183-8.181-4.367-16.361-6.572-24.623C635.671,1132.625,632.612,1132.625,629.274,1132.625z M513.36,1132.587
		c0,17.539,0,34.402,0,51.605c1.424,0,2.458,0.079,3.475-0.021c1.17-0.115,2.324-0.388,3.937-0.673c0-10.679,0-21.093,0-31.507
		c0.268-0.018,0.537-0.036,0.804-0.053c2.806,10.648,5.612,21.299,8.399,31.881c3.004,0,5.61,0,8.134,0c0-17.277,0-34.18,0-51.125
		c-2.36,0-4.373,0-7.006,0c0,8.344,0,16.393,0,24.439c-0.418,0.061-0.835,0.12-1.253,0.179c-2.239-8.317-4.478-16.635-6.656-24.726
		C519.529,1132.587,516.635,1132.587,513.36,1132.587z M537.834,302.986c1.21-9.213,0.809-78.121-0.366-82.21
		c-3.94,0-7.813,0-11.593,0c0,27.618,0,54.808,0,82.21C529.976,302.986,533.691,302.986,537.834,302.986z M906.126,1158.154
		c0.005,0,0.012,0,0.018,0c0,5.043-0.208,10.099,0.05,15.128c0.361,7.061,4.24,11.101,10.771,11.745
		c8.005,0.79,13.332-3.603,13.795-11.864c0.327-5.865,0.086-11.766,0.089-17.649c0.003-3.993,0.165-7.996-0.066-11.977
		c-0.285-4.903-2.124-9.063-7.083-10.949c-9.174-3.494-17.172,1.826-17.544,11.697
		C905.98,1148.902,906.126,1153.531,906.126,1158.154z M727.287,1157.887c0,5.043-0.197,10.097,0.044,15.128
		c0.406,8.416,6.085,13.051,14.294,11.967c6.436-0.851,10.039-4.869,10.312-12.18c0.251-6.716,0.068-13.449,0.063-20.174
		c-0.002-3.151,0.16-6.319-0.093-9.451c-0.374-4.65-2.146-8.586-6.813-10.481c-9.054-3.679-17.334,1.545-17.778,11.321
		C727.106,1148.631,727.28,1153.263,727.287,1157.887z M580.753,1183.868c0-7.234,0-14.275,0-21.314
		c6.641,0.165,7.439,0.762,7.621,6.205c0.166,4.977,0.035,9.966,0.035,14.983c3.438,0,6.031,0,7.975,0
		c0-5.68-0.042-10.908,0.014-16.137c0.04-3.759-0.801-7.091-4.207-9.572c5.863-5.164,4.437-11.886,3.687-18.267
		c-0.417-3.556-3.015-5.898-6.66-6.744c-5.543-1.284-11.056-0.693-16.599-0.589c0,17.6,0,34.357,0,51.435
		C575.271,1183.868,577.677,1183.868,580.753,1183.868z M833.939,1132.606c0,2.644,0,4.713,0,6.783
		c0,9.858,0.025,19.717-0.021,29.576c-0.01,1.871,0.116,3.925-0.601,5.552c-0.555,1.259-2.329,2.733-3.558,2.729
		c-1.23-0.003-2.997-1.484-3.55-2.746c-0.715-1.628-0.586-3.682-0.595-5.554c-0.045-10.487-0.004-20.976-0.039-31.463
		c-0.007-1.603-0.269-3.206-0.404-4.728c-2.633,0-4.83,0-7.499,0c0,13.099-0.003,25.854,0.005,38.61
		c0,1.257-0.029,2.527,0.136,3.769c0.715,5.386,3.934,8.755,9.194,9.73c8.365,1.551,14.43-3.253,14.587-12.024
		c0.21-11.742,0.07-23.492,0.038-35.237c-0.004-1.612-0.247-3.223-0.394-4.998C838.827,1132.606,836.796,1132.606,833.939,1132.606z
		 M757.031,1169.068c0,2.119-0.129,3.785,0.023,5.424c0.617,6.635,4.458,10.262,11.05,10.553c6.657,0.293,10.919-2.85,12.344-9.165
		c1.45-6.423-0.09-12.096-4.548-16.896c-2.283-2.457-5.163-4.445-7.067-7.145c-1.718-2.437-2.855-5.468-3.521-8.401
		c-0.411-1.82,0.918-3.635,3.26-3.837c2.122-0.184,3.708,0.517,4.244,2.786c0.367,1.56,0.734,3.118,1.132,4.801
		c1.392,0,2.438,0.076,3.469-0.021c1.18-0.113,2.343-0.38,3.873-0.642c-0.316-2.396-0.375-4.505-0.895-6.489
		c-1.624-6.194-5.637-8.613-12.979-8.055c-5.962,0.453-9.515,3.964-10.246,9.94c-0.768,6.285,1.048,11.607,5.583,16.017
		c2.406,2.34,4.872,4.628,7.147,7.09c2.444,2.643,3.354,5.951,2.323,9.352c-0.377,1.242-2.226,2.771-3.449,2.812
		c-1.218,0.04-2.997-1.367-3.615-2.602c-0.771-1.546-0.61-3.561-0.87-5.521C761.895,1169.068,759.834,1169.068,757.031,1169.068z
		 M959.077,1146.993c0-1.812,0.082-3.061-0.013-4.299c-0.523-6.859-4.113-10.444-10.696-10.746
		c-7.566-0.346-11.916,2.834-13.054,9.744c-0.988,6.017,0.877,11.206,5.054,15.56c2.468,2.572,5.169,4.927,7.544,7.575
		c2.499,2.784,3.852,6.131,2.452,9.838c-0.425,1.13-2.06,2.585-3.057,2.522c-1.354-0.082-3.162-1.191-3.804-2.385
		c-0.906-1.688-0.922-3.854-1.357-6.007c-2.603,0.136-4.789,0.247-7.028,0.363c0,2.349-0.192,4.048,0.033,5.69
		c0.912,6.688,5.309,10.329,12.125,10.207c6.739-0.12,10.976-4.048,11.683-10.716c0.661-6.226-0.959-11.646-5.463-16.087
		c-2.242-2.208-4.607-4.294-6.773-6.574c-2.077-2.187-3.423-4.753-3.19-7.934c0.148-2.039,0.661-3.794,3.027-4.112
		c2.393-0.322,4.133,0.497,4.617,3.082c0.259,1.373,0.44,2.761,0.676,4.277C954.238,1146.993,956.278,1146.993,959.077,1146.993z
		 M909.636,560.404c-0.045-8.444-6.914-15.742-14.855-15.787c-7.694-0.044-14.972,7.541-15.073,15.712
		c-0.108,8.691,6.896,15.901,15.334,15.783C903.35,575.997,909.684,569.179,909.636,560.404z M957.278,560.528
		c-0.016,8.946,6.101,15.523,14.489,15.585c8.304,0.061,14.809-6.668,15.043-15.295c0.228-8.35-5.574-16.029-15.037-15.982
		C962.817,544.881,956.655,552.354,957.278,560.528z M661.616,1184.052c7.196,0,14.202,0,21.29,0c0-2.487,0-4.683,0-7.502
		c-4.636,0-8.922,0-13.133,0c0-5.522,0-10.4,0-15.729c3.746,0,7.031,0,10.361,0c0-2.643,0-4.812,0-7.431c-3.675,0-6.948,0-10.354,0
		c0-4.709,0-8.938,0-13.734c4.757,0,9.05,0,13.489,0c0-1.619,0.07-2.67-0.018-3.708c-0.098-1.16-0.338-2.31-0.491-3.305
		c-7.289,0-14.107,0-21.143,0C661.616,1149.913,661.616,1166.834,661.616,1184.052z M623.795,1176.679c-4.562,0-8.864,0-13.306,0
		c0-5.515,0-10.421,0-15.76c3.663,0,6.957,0,10.52,0c0-2.603,0-4.767,0-7.613c-3.756,0-7.184,0-10.499,0c0-4.78,0-8.871,0-13.518
		c4.677,0,8.975,0,13.613,0c-0.136-2.783-0.243-4.967-0.354-7.208c-7.339,0-14.158,0-21.203,0c0,17.321,0,34.364,0,51.565
		c7.242,0,14.109,0,21.228,0C623.795,1181.723,623.795,1179.5,623.795,1176.679z M507.976,1132.728c-7.452,0-14.436,0-21.358,0
		c0,17.353,0,34.273,0,51.21c7.291,0,14.276,0,21.655,0c-0.155-2.609-0.284-4.772-0.451-7.561c-4.837,0-9.096,0-13.254,0
		c0-5.42,0-10.16,0-15.54c3.764,0,7.206,0,10.629,0c0-2.683,0-4.712,0-7.418c-3.683,0-7.125,0-10.619,0c0-4.777,0-8.863,0-13.521
		c4.606,0,8.904,0,13.398,0C507.976,1137.274,507.976,1135.232,507.976,1132.728z M567.318,1132.663c-8.306,0-16.311,0-24.397,0
		c0,2.598,0,4.781,0,7.041c2.818,0.2,5.235,0.368,8.117,0.57c0,14.756,0,29.104,0,43.628c2.94,0,5.368,0,8.263,0
		c0-7.577-0.06-14.857,0.017-22.136c0.077-7.233-0.354-14.492,0.265-21.628c2.984-0.17,5.241-0.297,7.735-0.439
		C567.318,1137.246,567.318,1135.027,567.318,1132.663z M894.721,1183.93c0-15.063,0-29.424,0-43.788
		c2.808-0.154,5.069-0.279,7.438-0.408c0-2.543,0-4.9,0-7.108c-8.348,0-16.213,0-24.249,0c0,2.561,0,4.752,0,7.098
		c2.781,0.164,5.2,0.307,8.078,0.477c0,14.764,0,29.118,0,43.73C888.915,1183.93,891.345,1183.93,894.721,1183.93z
		 M803.718,1132.612c0,2.45,0,4.508,0,6.564c0,9.863,0.034,19.728-0.013,29.589c-0.035,6.883-0.394,7.249-7.236,8.458
		c0,2.169,0,4.366,0,6.526c11.392,1.096,15.103-2.07,15.148-12.777c0.049-11.121,0.025-22.242-0.006-33.365
		c-0.004-1.61-0.236-3.219-0.376-4.995C808.807,1132.612,806.755,1132.612,803.718,1132.612z"/>
	<path fill-rule="evenodd" clip-rule="evenodd" fill="#FB1492" d="M-0.867,1.906c2.93,0.065,5.86,0.188,8.79,0.188
		c196.856,0.009,393.713,0.008,590.571,0.008c2.261,0,4.522,0,7.827,0c-1.398,1.792-2.116,2.934-3.043,3.867
		c-8.88,8.942-17.858,17.788-26.656,26.81c-2.219,2.277-4.462,3.646-7.701,3.225c-1.446-0.188-2.935-0.03-4.404-0.03
		c-185.524,0-371.048,0-556.572,0c-2.937,0-5.875-0.004-8.812-0.006C-0.867,24.614-0.867,13.26-0.867,1.906z"/>
	<path fill-rule="evenodd" clip-rule="evenodd" fill="#FF1494" d="M811.504,1417.32c9.736-9.846,19.402-19.763,29.289-29.455
		c1.463-1.433,3.932-1.944,6.025-2.58c1.152-0.349,2.498-0.063,3.757-0.063c186.036,0,372.071-0.002,558.107,0.023
		c2.881,0,5.758,0.351,8.638,0.537c0,10.513,0,21.025,0,31.538C1215.379,1417.32,1013.443,1417.32,811.504,1417.32z"/>
	<path fill-rule="evenodd" clip-rule="evenodd" fill="#FBFBFB" d="M-0.867,52.367c2.303,0.032,4.606,0.093,6.909,0.093
		c181.303,0.004,362.606,0.003,543.91,0.003c1.677,0,3.354,0,5.85,0c-1.026,1.495-1.609,2.683-2.492,3.573
		c-8.718,8.805-17.62,17.431-26.165,26.4c-2.889,3.034-5.895,3.968-9.928,3.963c-84.566-0.091-169.132-0.057-253.698-0.071
		c-87.713-0.014-175.426-0.05-263.14-0.07c-0.415,0-0.83,0.111-1.245,0.17C-0.867,75.074-0.867,63.72-0.867,52.367z"/>
	<path fill-rule="evenodd" clip-rule="evenodd" fill="#FFFFFF" d="M1417.32,1368.121c-3.662,0.125-7.323,0.355-10.982,0.356
		c-178.779,0.018-357.558,0.016-536.335,0.016c-2.685,0-5.371,0-9.025,0c1.147-1.625,1.665-2.628,2.425-3.391
		c9.028-9.086,18.141-18.089,27.111-27.23c1.9-1.937,3.813-3.121,6.578-2.78c1.24,0.153,2.515,0.026,3.773,0.026
		c166.607,0,333.215-0.003,499.822,0.009c5.546,0,11.088,0.126,16.633,0.195C1417.32,1346.255,1417.32,1357.188,1417.32,1368.121z"
		/>
	<path fill-rule="evenodd" clip-rule="evenodd" fill="#FB1491" d="M1417.32,1318.922c-2.389-0.115-4.774-0.33-7.159-0.33
		c-164.358-0.015-328.712-0.014-493.068-0.013c-1.814,0-3.628,0-6.476,0c1.559-1.953,2.317-3.102,3.268-4.059
		c8.881-8.944,17.849-17.805,26.66-26.815c2.063-2.111,4.183-3.313,7.162-2.982c1.45,0.163,2.935,0.028,4.404,0.028
		c148.404,0,296.806-0.002,445.209,0.004c6.668,0.001,13.332,0.068,20,0.106C1417.32,1296.215,1417.32,1307.569,1417.32,1318.922z"
		/>
	<path fill-rule="evenodd" clip-rule="evenodd" fill="#FB1492" d="M-0.867,102.827c168.572,0,337.143,0,506.604,0
		c-1.047,1.518-1.399,2.231-1.93,2.765c-9.476,9.529-19.002,19.007-28.439,28.574c-1.742,1.765-3.553,2.804-6.084,2.551
		c-1.454-0.145-2.935-0.025-4.403-0.025c-154.208-0.004-308.417-0.009-462.625-0.004c-1.04,0-2.081,0.131-3.122,0.201
		C-0.867,125.534-0.867,114.181-0.867,102.827z"/>
	<path fill-rule="evenodd" clip-rule="evenodd" fill="#FBFBFB" d="M1417.32,1268.461c-2.529-0.066-5.055-0.192-7.582-0.192
		c-147.343-0.009-294.687-0.008-442.028-0.009c-1.999,0-4,0-7.056,0c1.541-1.848,2.226-2.808,3.047-3.633
		c9.036-9.086,18.147-18.095,27.104-27.259c2.061-2.107,4.144-3.374,7.137-3.003c1.24,0.155,2.514,0.025,3.774,0.025
		c135.589,0,271.178,0,406.767,0c2.943,0,5.891,0.008,8.838,0.01C1417.32,1245.754,1417.32,1257.109,1417.32,1268.461z"/>
	<path fill-rule="evenodd" clip-rule="evenodd" fill="#FEFEFE" d="M0.39,153.558c2.295-0.126,4.589-0.359,6.883-0.359
		c147.14-0.018,294.28-0.017,441.419-0.017c2.017,0,4.034,0,7.276,0c-1.619,1.813-2.344,2.704-3.151,3.515
		c-8.895,8.931-17.862,17.79-26.662,26.812c-2.223,2.28-4.504,3.344-7.726,3.265c-7.971-0.196-15.95-0.063-23.927-0.063
		c-129.088,0-258.176,0.003-387.265-0.027c-2.702-0.001-5.404-0.388-8.105-0.596c0-10.513,0-21.025,0-31.538
		C-0.448,154.219-0.029,153.889,0.39,153.558z"/>
	<path fill-rule="evenodd" clip-rule="evenodd" fill="#FB1492" d="M1417.32,1218.002c-2.865-0.033-5.727-0.092-8.59-0.092
		c-129.885-0.006-259.767-0.004-389.649-0.004c-2.249,0-4.496,0-7.792,0c1.394-1.847,2.081-3.012,3.005-3.944
		c8.577-8.648,17.31-17.144,25.732-25.94c2.858-2.983,5.813-4.073,9.901-4.066c69.45,0.112,138.905,0.081,208.357,0.081
		c49.939,0,99.876,0.001,149.815-0.004c3.073-0.001,6.147-0.061,9.22-0.091C1417.32,1195.294,1417.32,1206.647,1417.32,1218.002z"/>
	<path fill-rule="evenodd" clip-rule="evenodd" fill="#FF1494" d="M0.387,203.835c2.502-0.147,5.002-0.424,7.504-0.424
		c129.918-0.021,259.834-0.019,389.751-0.019c2.225,0,4.448,0,7.237,0c-0.605,1.301-0.724,1.92-1.092,2.292
		c-9.465,9.546-18.986,19.036-28.417,28.616c-1.734,1.762-3.532,2.861-6.064,2.617c-1.249-0.12-2.517-0.02-3.776-0.02
		c-119.213,0-238.427,0.002-357.64-0.018c-2.501,0-5.002-0.272-7.504-0.417c-0.418-0.393-0.835-0.785-1.253-1.178
		c0-10.093,0-20.185,0-30.276C-0.449,204.618-0.03,204.227,0.387,203.835z"/>
	<path fill-rule="evenodd" clip-rule="evenodd" fill="#FBFBFB" d="M1417.32,1167.541c-16.846,0.04-33.69,0.111-50.533,0.112
		c-99.246,0.012-198.492,0.006-297.738,0.006c-2.248,0-4.494,0-7.923,0c1.573-1.883,2.348-2.961,3.272-3.892
		c8.586-8.637,17.327-17.127,25.734-25.936c2.869-3.007,5.829-4.066,9.912-4.062c91.063,0.099,182.125,0.076,273.188,0.076
		c12.379,0,24.759,0.02,37.141-0.017c2.313-0.006,4.63-0.227,6.946-0.35C1417.32,1144.833,1417.32,1156.188,1417.32,1167.541z"/>
	<path fill-rule="evenodd" clip-rule="evenodd" fill="#FFFFFF" d="M-0.867,254.208c2.491-0.206,4.981-0.592,7.472-0.593
		c113.885-0.03,227.77-0.027,341.655-0.015c2.007,0,4.014,0.171,7.18,0.314c-1.649,1.808-2.522,2.839-3.473,3.793
		c-8.74,8.774-17.563,17.466-26.193,26.346c-2.224,2.288-4.464,3.229-7.683,3.226c-104.657-0.083-209.313-0.068-313.971-0.085
		c-1.244,0-2.488-0.232-3.731-0.357c-0.419-0.363-0.837-0.728-1.256-1.092C-0.867,275.233-0.867,264.721-0.867,254.208z"/>
	<path fill-rule="evenodd" clip-rule="evenodd" fill="#FF1494" d="M-0.867,303.407c2.076,0.12,4.153,0.344,6.228,0.344
		c97.727,0.018,195.454,0.015,293.181,0.015c1.843,0,3.686,0,6.512,0c-1.316,1.734-2.005,2.889-2.924,3.814
		c-8.425,8.495-17.029,16.815-25.27,25.483c-3.142,3.304-6.34,4.615-10.944,4.607c-81.578-0.142-163.157-0.099-244.736-0.111
		c-6.917-0.001-13.835-0.118-20.753-0.181c-0.431-0.391-0.862-0.782-1.294-1.173C-0.867,325.273-0.867,314.339-0.867,303.407z"/>
	<path fill-rule="evenodd" clip-rule="evenodd" fill="#FF1494" d="M1417.32,1117.082c-4.358,0.066-8.717,0.192-13.076,0.193
		c-95.048,0.011-190.098,0.008-285.146,0.006c-2.234,0-4.469,0-8.082,0c2.029-2.137,3.093-3.307,4.205-4.423
		c8.153-8.18,16.456-16.217,24.407-24.589c3.142-3.304,6.357-4.682,10.969-4.652c32.731,0.192,65.464,0.103,98.196,0.103
		c53.294,0,106.59-0.008,159.883,0.023c2.881,0.001,5.761,0.352,8.644,0.538C1417.32,1095.214,1417.32,1106.148,1417.32,1117.082z"
		/>
	<path fill-rule="evenodd" clip-rule="evenodd" fill="#FBFBFB" d="M-0.867,353.868c8.595,0.031,17.19,0.09,25.785,0.091
		c74.044,0.007,148.089,0.003,222.133,0.003c2.306,0,4.612,0,7.734,0c-1.028,1.495-1.611,2.684-2.495,3.576
		c-8.864,8.948-17.87,17.758-26.622,26.815c-2.558,2.647-5.216,3.551-8.823,3.545c-71.946-0.108-143.893-0.104-215.839-0.116
		c-0.625,0-1.25,0.095-1.874,0.146C-0.867,376.574-0.867,365.221-0.867,353.868z"/>
	<path fill-rule="evenodd" clip-rule="evenodd" fill="#FEFEFE" d="M1417.32,1066.621c-3.662,0.124-7.321,0.356-10.982,0.357
		c-78.864,0.021-157.729,0.016-236.593,0.016c-2.263,0-4.525,0-7.808,0c1.353-1.795,2.027-2.937,2.934-3.85
		c8.431-8.488,17.049-16.799,25.284-25.473c3.013-3.175,6.099-4.32,10.419-4.311c59.778,0.13,119.555,0.086,179.332,0.086
		c10.068,0,20.136-0.021,30.206,0.018c2.401,0.011,4.804,0.232,7.208,0.356C1417.32,1044.753,1417.32,1055.686,1417.32,1066.621z"/>
	<path fill-rule="evenodd" clip-rule="evenodd" fill="#FA1491" d="M1417.32,1017.421c-2.178-0.114-4.354-0.331-6.532-0.331
		c-64.435-0.016-128.87-0.013-193.305-0.013c-1.607,0-3.214,0-5.85,0c1.561-1.952,2.318-3.103,3.267-4.06
		c8.881-8.943,17.848-17.802,26.66-26.813c2.063-2.109,4.187-3.014,7.159-3.01c54.359,0.074,108.722,0.053,163.083,0.06
		c1.838,0,3.678,0.068,5.518,0.106C1417.32,994.714,1417.32,1006.068,1417.32,1017.421z"/>
	<path fill-rule="evenodd" clip-rule="evenodd" fill="#FB1492" d="M-0.867,404.328c68.234,0,136.468,0,205.589,0
		c-1.052,1.521-1.404,2.233-1.935,2.767c-9.469,9.521-19.068,18.917-28.378,28.592c-2.616,2.719-5.525,2.5-8.625,2.5
		c-54.091,0.005-108.181,0.002-162.273,0.011c-1.459,0-2.919,0.124-4.378,0.191C-0.867,427.035-0.867,415.681-0.867,404.328z"/>
	<path fill-rule="evenodd" clip-rule="evenodd" fill="#FBFBFB" d="M-0.867,454.788c46.936-0.039,93.871-0.079,140.808-0.117
		c4.556-0.004,9.112-0.001,14.75-0.001c-1.615,1.921-2.527,3.173-3.606,4.26c-8.571,8.629-17.286,17.118-25.702,25.897
		c-2.731,2.848-5.576,3.743-9.411,3.73C78.465,488.435,40.957,488.48,3.45,488.5c-1.439,0.001-2.878,0.228-4.317,0.349
		C-0.867,477.495-0.867,466.142-0.867,454.788z"/>
	<path fill-rule="evenodd" clip-rule="evenodd" fill="#FBFBFB" d="M1417.32,966.96c-2.109-0.066-4.215-0.19-6.321-0.19
		c-48.056-0.012-96.11-0.009-144.165-0.009c-1.354,0-2.709,0-5.164,0c1.537-1.848,2.225-2.81,3.044-3.635
		c9.035-9.082,18.146-18.092,27.098-27.252c2.058-2.106,4.144-3.052,7.129-3.044c37.563,0.09,75.126,0.058,112.688,0.058
		c1.896,0,3.793,0.009,5.691,0.012C1417.32,944.254,1417.32,955.607,1417.32,966.96z"/>
	<path fill-rule="evenodd" clip-rule="evenodd" fill="#FA1491" d="M1417.32,916.5c-32.417-0.03-64.832-0.061-97.247-0.091
		c-2.245-0.002-4.489,0-7.79,0c1.41-1.857,2.102-3.02,3.026-3.951c8.715-8.787,17.561-17.447,26.16-26.347
		c2.536-2.627,5.153-3.67,8.79-3.651c22.352,0.111,44.705,0.01,67.061-0.021C1417.32,893.792,1417.32,905.148,1417.32,916.5z"/>
	<path fill-rule="evenodd" clip-rule="evenodd" fill="#FF1494" d="M0.387,505.332c1.662-0.146,3.322-0.417,4.984-0.418
		c31.049-0.025,62.098-0.022,93.148-0.008c1.599,0.001,3.196,0.158,5.216,0.264c-0.479,1.027-0.598,1.646-0.966,2.018
		c-9.461,9.541-18.894,19.112-28.492,28.514c-1.357,1.329-3.536,2.568-5.339,2.575c-22.648,0.091-45.298-0.052-67.948-0.143
		c-0.201-0.001-0.403-0.11-0.604-0.169c-0.418-0.394-0.835-0.786-1.253-1.179c0-10.092,0-20.184,0-30.276
		C-0.449,506.117-0.03,505.724,0.387,505.332z"/>
	<path fill-rule="evenodd" clip-rule="evenodd" fill="#F8F8F8" d="M1417.32,866.042c-15.91,0.004-31.82,0.013-47.73,0.018
		c-2.035,0.001-4.071,0-7.154,0c1.234-1.66,1.799-2.641,2.567-3.414c9.005-9.054,18.104-18.017,27.025-27.154
		c2.222-2.275,4.495-3.229,7.696-3.246c5.862-0.034,11.748,0.724,17.596-0.266C1417.32,843.333,1417.32,854.686,1417.32,866.042z"/>
	<path fill-rule="evenodd" clip-rule="evenodd" fill="#FEFEFE" d="M-0.867,554.447c1.174,0.213,2.348,0.604,3.523,0.608
		c14.853,0.042,29.706,0.03,44.56,0.031c2.002,0.001,4.004,0,7.367,0c-1.817,2.072-2.65,3.13-3.594,4.078
		c-8.713,8.756-17.539,17.403-26.114,26.292c-2.407,2.496-4.884,3.464-8.256,3.313c-5.429-0.243-10.874-0.128-16.313-0.164
		c-0.391-0.454-0.782-0.907-1.173-1.36C-0.867,576.313-0.867,565.38-0.867,554.447z"/>
	<path fill-rule="evenodd" clip-rule="evenodd" fill="#A50C5F" d="M-0.867,604.907c1.55,0.141,3.099,0.281,4.649,0.421
		c0.176,0.382,0.351,0.765,0.526,1.147c-1.725,1.159-3.45,2.319-5.175,3.478C-0.867,608.271-0.867,606.589-0.867,604.907z"/>
	<path fill-rule="evenodd" clip-rule="evenodd" fill="#F0138C" d="M1417.32,816.841c-1.324-0.524-2.649-1.049-4.814-1.909
		c1.766-1.15,3.29-2.144,4.814-3.137C1417.32,813.478,1417.32,815.159,1417.32,816.841z"/>
	<path fill-rule="evenodd" clip-rule="evenodd" fill="#F0138C" d="M0.387,203.835c-0.417,0.391-0.835,0.783-1.254,1.174
		c0-0.421,0-0.841,0-1.262C-0.449,203.776-0.03,203.806,0.387,203.835z"/>
	<path fill-rule="evenodd" clip-rule="evenodd" fill="#F0138C" d="M-0.867,235.286c0.418,0.393,0.835,0.785,1.253,1.178
		c-0.418,0.027-0.835,0.056-1.253,0.083C-0.867,236.126-0.867,235.706-0.867,235.286z"/>
	<path fill-rule="evenodd" clip-rule="evenodd" fill="#7F7F7F" d="M-0.867,587.247c0.392,0.454,0.782,0.906,1.173,1.36
		c-0.391-0.034-0.782-0.066-1.173-0.098C-0.867,588.087-0.867,587.667-0.867,587.247z"/>
	<path fill-rule="evenodd" clip-rule="evenodd" fill="#F0138C" d="M0.387,505.332c-0.417,0.392-0.835,0.785-1.254,1.178
		c0-0.42,0-0.841,0-1.261C-0.449,505.276-0.03,505.304,0.387,505.332z"/>
	<path fill-rule="evenodd" clip-rule="evenodd" fill="#EDEDED" d="M0.39,153.558c-0.419,0.331-0.838,0.661-1.257,0.991
		c0-0.421,0-0.84,0-1.262C-0.448,153.378-0.029,153.467,0.39,153.558z"/>
	<path fill-rule="evenodd" clip-rule="evenodd" fill="#A50C5F" d="M-0.867,336.206c0.432,0.391,0.863,0.783,1.294,1.173
		c-0.431,0.029-0.862,0.059-1.294,0.088C-0.867,337.047-0.867,336.626-0.867,336.206z"/>
	<path fill-rule="evenodd" clip-rule="evenodd" fill="#EDEDED" d="M-0.867,285.746c0.419,0.364,0.837,0.729,1.256,1.092
		c-0.419,0.057-0.837,0.113-1.256,0.17C-0.867,286.587-0.867,286.167-0.867,285.746z"/>
	<path fill-rule="evenodd" clip-rule="evenodd" fill="#F0138C" d="M-0.867,536.786c0.418,0.393,0.835,0.786,1.253,1.179
		c-0.418,0.028-0.835,0.055-1.253,0.082C-0.867,537.627-0.867,537.207-0.867,536.786z"/>
	<path fill-rule="evenodd" clip-rule="evenodd" fill="#F4F4F4" d="M733.438,220.601c5.106,0,10.265,0,15.838,0
		c3.73,14.389,7.449,28.729,11.159,43.041c0.481-0.081,0.674-0.101,0.858-0.146c0.204-0.05,0.448-0.074,0.586-0.204
		c0.119-0.112,0.159-0.357,0.159-0.543c0.006-13.849,0.006-27.697,0.006-41.984c3.791,0,7.237,0,10.766,0
		c1.181,4.104,1.546,73.456,0.33,82.137c-4.055,0-8.166,0-12.941,0c-4.742-18.082-9.535-36.363-14.328-54.644
		c-0.394,0.048-0.787,0.095-1.181,0.144c0,18.027,0,36.053,0,54.449c-4.063,0-7.534,0-11.042,0
		C732.486,298.464,732.243,227.51,733.438,220.601z"/>
	<path fill-rule="evenodd" clip-rule="evenodd" fill="#F4F4F4" d="M621.37,220.644c4.211,0,7.7,0,11.588,0
		c0,27.261,0,54.502,0,82.166c-4.144,0-8.235,0-13.208,0c-4.699-17.915-9.513-36.271-14.328-54.629
		c-2.112,4.322-1.307,8.757-1.453,13.094c-0.156,4.62-0.035,9.25-0.035,13.875c0,4.625,0,9.251,0,13.875c0,4.566,0,9.131,0,13.94
		c-3.944,0-7.246,0-10.577,0c-1.289-4.119-1.692-73.444-0.36-82.641c2.552,0,5.226,0,7.899,0c2.495,0,4.991,0,7.869,0
		c3.887,14.986,7.712,29.741,11.538,44.495c0.356-0.022,0.71-0.046,1.066-0.068C621.37,250.151,621.37,235.55,621.37,220.644z"/>
	<path fill-rule="evenodd" clip-rule="evenodd" fill="#F4F4F4" d="M477.166,303.202c0-27.889,0-55.096,0-82.657
		c8.265,0,16.231-0.548,24.089,0.142c9.439,0.828,13.767,5.553,14.888,14.95c0.418,3.518,0.357,7.143,0.063,10.683
		c-0.415,4.996-2.21,9.415-7.147,12.243c11.97,9.112,9.543,21.542,7.178,33.313c-1.614,8.026-8.763,10.895-16.396,11.251
		C492.518,303.47,485.168,303.202,477.166,303.202z M490.457,291.083c2.557,0,4.826,0.125,7.076-0.026
		c4.801-0.32,6.343-1.76,6.713-6.474c0.229-2.915,0.179-5.861,0.102-8.788c-0.203-7.661-2.196-9.704-9.668-9.976
		c-1.374-0.05-2.756,0.137-4.223,0.22C490.457,274.598,490.457,282.675,490.457,291.083z M490.396,253.851
		c11.318,0.46,13.242-1.638,12.696-13.233c-0.359-7.625-2.54-8.965-12.696-7.617C490.396,239.767,490.396,246.569,490.396,253.851z"
		/>
	<path fill-rule="evenodd" clip-rule="evenodd" fill="#FBFBFB" d="M807.98,220.407c7.748,0,15.076-0.403,22.342,0.096
		c10.433,0.714,16.399,7.096,16.571,17.711c0.256,15.74,0.262,31.491-0.008,47.23c-0.18,10.578-6.217,16.934-16.667,17.617
		c-7.264,0.474-14.582,0.091-22.238,0.091C807.98,275.543,807.98,248.356,807.98,220.407z M820.753,291.169
		c2.276,0,4.147,0.091,6.006-0.018c4.949-0.288,6.721-1.963,7.248-6.85c0.156-1.456,0.081-2.938,0.083-4.409
		c0.005-11.974,0.014-23.949-0.002-35.925c-0.013-10.738-1.374-12.028-12.041-11.459c-0.359,0.02-0.7,0.363-1.294,0.69
		C820.753,252.118,820.753,271.171,820.753,291.169z"/>
	<path fill-rule="evenodd" clip-rule="evenodd" fill="#FBFBFB" d="M894.846,261.632c0.006,7.557,0.086,15.115-0.011,22.67
		c-0.216,16.51-15.229,25.461-29.98,17.876c-6.731-3.459-9.22-9.521-9.331-16.644c-0.17-11.123-0.053-22.25-0.054-33.375
		c-0.001-4.828-0.142-9.662,0.042-14.483c0.457-11.854,7.909-18.71,20.001-18.589c11.724,0.117,18.949,6.951,19.284,18.615
		C895.028,245.673,894.842,253.656,894.846,261.632z M881.916,262.103c0.012,0,0.024,0,0.036,0c0-6.93,0.023-13.859-0.017-20.789
		c-0.01-1.67-0.018-3.389-0.391-5c-0.824-3.539-2.775-5.033-6.189-5.1c-3.497-0.069-5.453,1.27-6.371,4.796
		c-0.468,1.798-0.583,3.728-0.59,5.599c-0.047,13.44-0.057,26.88,0.009,40.32c0.012,2.071,0.284,4.186,0.763,6.202
		c0.665,2.804,2.707,4.068,5.543,4.203c4.498,0.215,6.989-2.117,7.149-7.552C882.082,277.227,881.916,269.662,881.916,262.103z"/>
	<path fill-rule="evenodd" clip-rule="evenodd" fill="#F6F6F6" d="M940.117,243.203c-4.005,0-7.682,0-11.733,0
		c-0.285-2.363-0.519-4.608-0.834-6.84c-0.442-3.11-2.169-4.877-5.394-5.079c-3.553-0.222-5.483,1.058-6.53,4.507
		c-1.33,4.382-0.148,8.428,2.401,11.889c2.218,3.011,5.029,5.594,7.661,8.285c2.491,2.545,5.222,4.865,7.615,7.496
		c7.039,7.736,8.95,16.855,6.742,26.928c-1.59,7.242-5.882,12.058-13.304,13.317c-3.442,0.584-7.128,0.796-10.548,0.233
		c-8.11-1.335-12.926-6.605-13.933-14.823c-0.378-3.085-0.062-6.255-0.062-9.983c1.775-0.122,3.553-0.293,5.334-0.352
		c1.874-0.06,3.752-0.013,6.143-0.013c0.277,2.619,0.456,5.051,0.808,7.458c0.648,4.433,2.459,6.059,6.515,6.033
		c4.02-0.026,5.92-1.831,6.436-6.17c0.694-5.829-1.257-10.773-5.296-14.868c-3.828-3.879-7.887-7.53-11.731-11.393
		c-6.645-6.672-9.291-14.733-8.239-24.106c1.203-10.733,8.48-16.904,19.853-16.65c10.717,0.239,17.276,6.352,18.071,16.959
		C940.261,238.304,940.117,240.602,940.117,243.203z"/>
	<path fill-rule="evenodd" clip-rule="evenodd" fill="#F6F6F6" d="M662.832,280.188c1.315-9.954,2.614-19.912,3.95-29.864
		c1.312-9.758,2.662-19.511,4.044-29.617c3.998,0,7.862,0,12.112,0c-4.172,27.496-8.29,54.634-12.46,82.121
		c-5.783,0-11.325,0-17.531,0c-4.132-27.178-8.279-54.46-12.486-82.145c4.486,0,8.591,0,13.284,0
		c2.681,19.83,5.364,39.666,8.046,59.501C662.139,280.185,662.485,280.187,662.832,280.188z"/>
	<path fill-rule="evenodd" clip-rule="evenodd" fill="#F1F1F1" d="M549.255,220.45c11.63,0,22.923,0,34.718,0
		c0,3.768,0,7.413,0,11.779c-7.048,0-14.25,0-21.721,0c0,7.527,0,14.347,0,21.722c5.721,0,11.283,0,17.189,0
		c0,4.004,0,7.476,0,11.642c-5.574,0-11.288,0-17.209,0c0,8.786,0,16.885,0,25.479c7.292,0,14.328,0,21.796,0
		c0,4.119,0,7.756,0,11.786c-11.505,0-22.94,0-34.419,0C548.344,298.771,547.94,229.655,549.255,220.45z"/>
	<path fill-rule="evenodd" clip-rule="evenodd" fill="#F8F8F8" d="M957.599,740.61c0.399,0.441,0.8,0.884,1.198,1.326
		c-0.338,0.469-1.068,1.081-0.955,1.384c2.37,6.475,4.835,12.914,7.282,19.361l-0.054-0.089c0.846,2.134,1.688,4.268,2.534,6.4
		l-0.038-0.067c0.39,4.755,2.495,10.532,5.078,13.945l-0.041-0.073c0.443,1.285,0.89,2.57,1.333,3.856l-0.056-0.092
		c1.277,3.392,2.556,6.785,3.833,10.177l-0.047-0.066c0.976,4.794,2.54,9.296,6.314,12.692l-0.036-0.059
		c0.461,0.864,0.926,1.728,1.387,2.592c3.59,10.188,5.938,20.609,5.919,31.478c-1.025-0.095-2.045-0.188-3.277-0.303
		c-0.134-0.909-0.308-1.705-0.361-2.509c-0.566-8.402-3.978-15.397-8.995-22.227c-15.018-20.435-28.299-42.005-39.412-64.853
		c-2.007-4.13-3.686-8.422-5.515-12.64c1.074-3.376,2.201-6.735,3.216-10.13c1.974-6.616,3.831-13.268,5.851-19.87
		c0.599-1.966,1.575-3.818,2.378-5.724c0.83,1.912,1.66,3.823,2.49,5.734c2.043,5.917,4.088,11.836,6.132,17.753l-0.03-0.046
		c0.846,2.536,1.691,5.075,2.536,7.611l-0.021-0.051C956.694,737.619,957.145,739.113,957.599,740.61z"/>
	<path fill-rule="evenodd" clip-rule="evenodd" fill="#F7F7F7" d="M689.502,302.801c0-27.474,0-54.667,0-82.164
		c11.718,0,23.14,0,34.895,0c0,3.877,0,7.526,0,11.656c-7.332,0-14.399,0-21.848,0c0,7.287,0,14.108,0,21.498
		c5.567,0,11.13,0,17.188,0c0,4.16,0,7.77,0,11.91c-5.606,0-11.182,0-17.158,0c0,8.563,0,16.618,0,25.4c7.255,0,14.464,0,21.902,0
		c0,4.237,0,7.759,0,11.699C713.027,302.801,701.603,302.801,689.502,302.801z"/>
	<path fill-rule="evenodd" clip-rule="evenodd" fill="#F1F1F1" d="M695.669,1183.921c-2.923,0-4.95,0-7.217,0
		c0-17.155,0-34.045,0-51.233c3.797,0,7.284,0,11.372,0c1.52,10.438,3.049,20.947,4.579,31.458c0.38,0.02,0.761,0.042,1.142,0.062
		c1.485-10.286,2.971-20.571,4.525-31.333c3.646,0,7.298,0,11.402,0c0,16.717,0,33.599,0,51.014
		c-2.079,0.109-4.263,0.227-7.386,0.394c0-9.571,0-18.785,0-28c-0.516-0.027-1.031-0.055-1.547-0.081
		c-1.462,9.188-2.923,18.374-4.413,27.741c-2.382,0-4.418,0-6.906,0c-1.54-9.892-3.072-19.729-4.605-29.567
		c-0.314,0.019-0.631,0.035-0.946,0.051C695.669,1164.053,695.669,1173.68,695.669,1183.921z"/>
	<path fill-rule="evenodd" clip-rule="evenodd" fill="#F1F1F1" d="M784.462,220.607c4.527,0,8.447,0,12.688,0
		c0,27.486,0,54.68,0,82.254c-4.222,0-8.279,0-12.688,0C784.462,275.466,784.462,248.272,784.462,220.607z"/>
	<path fill-rule="evenodd" clip-rule="evenodd" fill="#EDEDED" d="M864.367,1183.843c-2.638-9.938-5.19-19.552-7.742-29.166
		c-0.471,0.03-0.941,0.06-1.411,0.089c-1.282,2.931-0.446,6.187-0.586,9.271c-0.143,3.146-0.031,6.303-0.031,9.456
		c0,3.338,0,6.677,0,10.36c-2.475,0-4.638,0-6.945,0c0-17.183,0-34.098,0-51.247c3.432,0,6.52,0,10.005,0
		c2.251,8.47,4.487,16.89,6.724,25.31c0.368-0.023,0.735-0.046,1.103-0.07c0-8.298,0-16.594,0-25.165c2.717,0,4.727,0,7.166,0
		c0,16.94,0,33.867,0,51.162C870.181,1183.843,867.531,1183.843,864.367,1183.843z"/>
	<path fill-rule="evenodd" clip-rule="evenodd" fill="#F1F1F1" d="M629.274,1132.625c3.338,0,6.397,0,9.845,0
		c2.205,8.262,4.389,16.442,6.572,24.623c0.406-0.049,0.813-0.097,1.219-0.146c0-8.009,0-16.016,0-24.364c2.639,0,4.636,0,7.028,0
		c0,16.847,0,33.735,0,51.041c-2.409,0-5.006,0-8.073,0c-2.819-10.608-5.685-21.383-8.549-32.156
		c-0.357,0.058-0.714,0.119-1.071,0.18c0,10.604,0,21.21,0,32.099c-2.455,0-4.487,0-6.971,0
		C629.274,1167.055,629.274,1150.195,629.274,1132.625z"/>
	<path fill-rule="evenodd" clip-rule="evenodd" fill="#F1F1F1" d="M513.36,1132.587c3.275,0,6.168,0,9.834,0
		c2.178,8.091,4.417,16.408,6.656,24.726c0.418-0.059,0.835-0.118,1.253-0.179c0-8.047,0-16.096,0-24.439c2.633,0,4.646,0,7.006,0
		c0,16.945,0,33.848,0,51.125c-2.524,0-5.13,0-8.134,0c-2.787-10.582-5.593-21.232-8.399-31.881
		c-0.267,0.017-0.536,0.035-0.804,0.053c0,10.414,0,20.828,0,31.507c-1.613,0.285-2.767,0.558-3.937,0.673
		c-1.016,0.101-2.05,0.021-3.475,0.021C513.36,1166.99,513.36,1150.126,513.36,1132.587z"/>
	<path fill-rule="evenodd" clip-rule="evenodd" fill="#FBFBFB" d="M537.834,302.986c-4.143,0-7.859,0-11.958,0
		c0-27.403,0-54.592,0-82.21c3.779,0,7.652,0,11.593,0C538.644,224.865,539.045,293.773,537.834,302.986z"/>
	<path fill-rule="evenodd" clip-rule="evenodd" fill="#EDEDED" d="M906.126,1158.154c0-4.623-0.146-9.252,0.029-13.869
		c0.372-9.871,8.37-15.191,17.544-11.697c4.959,1.887,6.798,6.046,7.083,10.949c0.231,3.98,0.069,7.983,0.066,11.977
		c-0.003,5.884,0.238,11.784-0.089,17.649c-0.463,8.262-5.79,12.654-13.795,11.864c-6.531-0.645-10.41-4.685-10.771-11.745
		c-0.258-5.029-0.05-10.085-0.05-15.128C906.138,1158.154,906.131,1158.154,906.126,1158.154z M922.467,1158.525
		c-0.005,0-0.01,0-0.015,0c0-4.812,0.04-9.623-0.015-14.435c-0.029-2.603-1.031-4.528-4.014-4.499
		c-3.029,0.029-3.86,2.088-3.872,4.633c-0.041,9.413-0.036,18.827-0.014,28.239c0.007,2.521,0.805,4.6,3.705,4.903
		c2.462,0.257,4.062-1.53,4.185-5.035C922.587,1167.735,922.467,1163.126,922.467,1158.525z"/>
	<path fill-rule="evenodd" clip-rule="evenodd" fill="#EDEDED" d="M727.283,1157.887c-0.003-4.624-0.177-9.256,0.033-13.87
		c0.444-9.776,8.725-15,17.778-11.321c4.667,1.896,6.438,5.831,6.813,10.481c0.253,3.132,0.091,6.3,0.093,9.451
		c0.005,6.725,0.188,13.458-0.063,20.174c-0.272,7.311-3.876,11.329-10.312,12.18c-8.209,1.084-13.888-3.551-14.294-11.967
		C727.09,1167.984,727.287,1162.93,727.283,1157.887z M743.635,1158.709c-0.007,0-0.013,0-0.02,0c0-4.811,0.024-9.622-0.01-14.433
		c-0.015-1.966-0.432-3.767-2.611-4.51c-2.84-0.968-5.151,0.631-5.228,4.276c-0.197,9.41-0.174,18.825-0.048,28.236
		c0.047,3.538,1.687,5.341,4.114,5.082c3.272-0.349,3.795-2.771,3.8-5.473C743.639,1167.497,743.635,1163.103,743.635,1158.709z"/>
	<path fill-rule="evenodd" clip-rule="evenodd" fill="#F1F1F1" d="M580.753,1183.868c-3.076,0-5.482,0-8.134,0
		c0-17.077,0-33.835,0-51.435c5.543-0.104,11.056-0.695,16.599,0.589c3.645,0.846,6.243,3.188,6.66,6.744
		c0.75,6.381,2.176,13.103-3.687,18.267c3.406,2.481,4.247,5.813,4.207,9.572c-0.057,5.229-0.014,10.457-0.014,16.137
		c-1.944,0-4.537,0-7.975,0c0-5.018,0.131-10.007-0.035-14.983c-0.182-5.443-0.98-6.04-7.621-6.205
		C580.753,1169.592,580.753,1176.633,580.753,1183.868z M580.96,1154.527c2.861,0.457,5.191,0.385,6.652-2.28
		c1.308-2.389,1.042-9.198-0.499-10.87c-1.799-1.954-3.927-1.607-6.153-1.065C580.96,1145.273,580.96,1149.797,580.96,1154.527z"/>
	<path fill-rule="evenodd" clip-rule="evenodd" fill="#F7F7F7" d="M833.939,1132.606c2.856,0,4.888,0,7.3,0
		c0.146,1.775,0.39,3.386,0.394,4.998c0.032,11.745,0.172,23.495-0.038,35.237c-0.157,8.771-6.222,13.575-14.587,12.024
		c-5.261-0.976-8.479-4.345-9.194-9.73c-0.165-1.241-0.136-2.512-0.136-3.769c-0.008-12.757-0.005-25.512-0.005-38.61
		c2.669,0,4.866,0,7.499,0c0.136,1.521,0.397,3.125,0.404,4.728c0.035,10.487-0.006,20.976,0.039,31.463
		c0.009,1.872-0.12,3.926,0.595,5.554c0.553,1.262,2.319,2.743,3.55,2.746c1.229,0.004,3.003-1.471,3.558-2.729
		c0.717-1.627,0.591-3.681,0.601-5.552c0.047-9.859,0.021-19.718,0.021-29.576C833.939,1137.319,833.939,1135.25,833.939,1132.606z"
		/>
	<path fill-rule="evenodd" clip-rule="evenodd" fill="#F1F1F1" d="M757.031,1169.068c2.803,0,4.863,0,7.257,0
		c0.26,1.961,0.099,3.976,0.87,5.521c0.618,1.234,2.397,2.642,3.615,2.602c1.224-0.04,3.072-1.569,3.449-2.812
		c1.03-3.4,0.121-6.709-2.323-9.352c-2.275-2.462-4.741-4.75-7.147-7.09c-4.535-4.409-6.351-9.731-5.583-16.017
		c0.731-5.977,4.284-9.487,10.246-9.94c7.343-0.559,11.355,1.86,12.979,8.055c0.52,1.984,0.578,4.093,0.895,6.489
		c-1.53,0.262-2.693,0.528-3.873,0.642c-1.03,0.097-2.077,0.021-3.469,0.021c-0.397-1.683-0.765-3.241-1.132-4.801
		c-0.536-2.27-2.122-2.97-4.244-2.786c-2.342,0.202-3.671,2.017-3.26,3.837c0.666,2.934,1.804,5.965,3.521,8.401
		c1.904,2.699,4.784,4.688,7.067,7.145c4.458,4.801,5.998,10.474,4.548,16.896c-1.425,6.315-5.687,9.458-12.344,9.165
		c-6.592-0.291-10.433-3.918-11.05-10.553C756.902,1172.853,757.031,1171.187,757.031,1169.068z"/>
	<path fill-rule="evenodd" clip-rule="evenodd" fill="#F1F1F1" d="M959.077,1146.993c-2.799,0-4.839,0-7.225,0
		c-0.235-1.517-0.417-2.904-0.676-4.277c-0.484-2.585-2.225-3.404-4.617-3.082c-2.366,0.318-2.879,2.073-3.027,4.112
		c-0.232,3.181,1.113,5.747,3.19,7.934c2.166,2.28,4.531,4.366,6.773,6.574c4.504,4.441,6.124,9.861,5.463,16.087
		c-0.707,6.668-4.943,10.596-11.683,10.716c-6.816,0.122-11.213-3.52-12.125-10.207c-0.226-1.643-0.033-3.342-0.033-5.69
		c2.239-0.116,4.426-0.228,7.028-0.363c0.436,2.152,0.451,4.319,1.357,6.007c0.642,1.193,2.45,2.303,3.804,2.385
		c0.997,0.063,2.632-1.393,3.057-2.522c1.399-3.707,0.047-7.054-2.452-9.838c-2.375-2.648-5.076-5.003-7.544-7.575
		c-4.177-4.354-6.042-9.543-5.054-15.56c1.138-6.91,5.487-10.09,13.054-9.744c6.583,0.302,10.173,3.887,10.696,10.746
		C959.159,1143.932,959.077,1145.181,959.077,1146.993z"/>
	<path fill-rule="evenodd" clip-rule="evenodd" fill="#F7F7F7" d="M661.616,1184.052c0-17.218,0-34.14,0-51.408
		c7.036,0,13.854,0,21.143,0c0.153,0.995,0.393,2.145,0.491,3.305c0.088,1.038,0.018,2.089,0.018,3.708c-4.438,0-8.732,0-13.489,0
		c0,4.796,0,9.025,0,13.734c3.406,0,6.679,0,10.354,0c0,2.619,0,4.788,0,7.431c-3.33,0-6.615,0-10.361,0c0,5.328,0,10.206,0,15.729
		c4.211,0,8.498,0,13.133,0c0,2.819,0,5.015,0,7.502C675.818,1184.052,668.812,1184.052,661.616,1184.052z"/>
	<path fill-rule="evenodd" clip-rule="evenodd" fill="#F7F7F7" d="M623.795,1176.679c0,2.821,0,5.044,0,7.467
		c-7.119,0-13.986,0-21.228,0c0-17.201,0-34.244,0-51.565c7.045,0,13.863,0,21.203,0c0.11,2.241,0.217,4.425,0.354,7.208
		c-4.639,0-8.937,0-13.613,0c0,4.646,0,8.737,0,13.518c3.315,0,6.743,0,10.499,0c0,2.847,0,5.011,0,7.613c-3.563,0-6.857,0-10.52,0
		c0,5.339,0,10.245,0,15.76C614.932,1176.679,619.233,1176.679,623.795,1176.679z"/>
	<path fill-rule="evenodd" clip-rule="evenodd" fill="#F7F7F7" d="M507.976,1132.728c0,2.504,0,4.546,0,7.17
		c-4.494,0-8.792,0-13.398,0c0,4.658,0,8.744,0,13.521c3.494,0,6.936,0,10.619,0c0,2.706,0,4.735,0,7.418c-3.423,0-6.865,0-10.629,0
		c0,5.38,0,10.12,0,15.54c4.158,0,8.417,0,13.254,0c0.167,2.788,0.296,4.951,0.451,7.561c-7.379,0-14.364,0-21.655,0
		c0-16.937,0-33.857,0-51.21C493.541,1132.728,500.524,1132.728,507.976,1132.728z"/>
	<path fill-rule="evenodd" clip-rule="evenodd" fill="#EDEDED" d="M567.318,1132.663c0,2.364,0,4.583,0,7.036
		c-2.494,0.143-4.751,0.27-7.735,0.439c-0.619,7.136-0.188,14.395-0.265,21.628c-0.077,7.278-0.017,14.559-0.017,22.136
		c-2.896,0-5.323,0-8.263,0c0-14.523,0-28.872,0-43.628c-2.882-0.202-5.299-0.37-8.117-0.57c0-2.26,0-4.443,0-7.041
		C551.007,1132.663,559.012,1132.663,567.318,1132.663z"/>
	<path fill-rule="evenodd" clip-rule="evenodd" fill="#EDEDED" d="M894.721,1183.93c-3.376,0-5.806,0-8.733,0
		c0-14.612,0-28.967,0-43.73c-2.878-0.17-5.297-0.313-8.078-0.477c0-2.346,0-4.537,0-7.098c8.036,0,15.901,0,24.249,0
		c0,2.208,0,4.565,0,7.108c-2.368,0.129-4.63,0.254-7.438,0.408C894.721,1154.506,894.721,1168.867,894.721,1183.93z"/>
	<path fill-rule="evenodd" clip-rule="evenodd" fill="#F8F8F8" d="M803.718,1132.612c3.037,0,5.089,0,7.518,0
		c0.14,1.776,0.372,3.385,0.376,4.995c0.031,11.123,0.055,22.244,0.006,33.365c-0.046,10.707-3.757,13.873-15.148,12.777
		c0-2.16,0-4.357,0-6.526c6.843-1.209,7.201-1.575,7.236-8.458c0.047-9.861,0.013-19.726,0.013-29.589
		C803.718,1137.12,803.718,1135.062,803.718,1132.612z"/>
	<path fill-rule="evenodd" clip-rule="evenodd" fill="#1A1316" d="M912.825,665.339c2.746,11.139,5.482,22.281,8.259,33.413
		c0.192,0.772,0.688,1.469,1.041,2.2c-0.392,1.728-0.78,3.456-1.17,5.185c-3.39-0.181-2.974-3.312-3.397-5.153
		c-1.955-8.505-3.53-17.1-5.128-25.685c-0.607-3.254-0.91-6.564-1.352-9.85C911.661,665.414,912.244,665.376,912.825,665.339z"/>
	<path fill-rule="evenodd" clip-rule="evenodd" fill="#5D414C" d="M953.757,728.609c-2.044-5.917-4.089-11.836-6.132-17.753
		c0.407,0.042,0.815,0.051,1.225,0.029C951.22,716.589,954.131,722.143,953.757,728.609z"/>
	<path fill-rule="evenodd" clip-rule="evenodd" fill="#1A1316" d="M583.426,994.714c-0.51,1.729-1.019,3.46-1.528,5.188
		c-0.341-0.051-0.681-0.104-1.021-0.155c0.193-1.69,0.387-3.383,0.58-5.074C582.113,994.688,582.771,994.702,583.426,994.714z"/>
	<path fill-rule="evenodd" clip-rule="evenodd" fill="#040404" d="M478.098,668.715c3.523,0.241,7.053,0.063,10.369,0.822
		c3.943,0.904,5.687,4.275,5.74,8.053c0.128,8.986,0.227,17.995-0.26,26.96c-0.372,6.855-6.863,10.718-15.85,9.759
		C478.098,699.621,478.098,684.858,478.098,668.715z"/>
	<path fill-rule="evenodd" clip-rule="evenodd" fill="#040404" d="M479.103,794.202c0-14.827,0-29.389,0-43.913
		c11.008-1.26,16.269,3.109,16.466,13.485c0.096,5.02,0.159,10.048-0.041,15.061c-0.106,2.673-0.473,5.431-1.296,7.963
		C491.878,794.029,487.563,796.168,479.103,794.202z"/>
	<path fill-rule="evenodd" clip-rule="evenodd" fill="#1A1316" d="M888.322,799.396c1.227-4.617,2.155-9.338,3.73-13.832
		c7.552-21.542,15.279-43.021,22.942-64.521c0.594,0.51,1.188,1.019,1.78,1.528c-6.465,24.758-14.182,49.075-25.427,72.141
		C890.539,796.371,889.341,797.839,888.322,799.396z"/>
	<path fill-rule="evenodd" clip-rule="evenodd" fill="#5D414C" d="M916.775,722.571c-0.593-0.51-1.187-1.019-1.78-1.528
		c1.584-3.996,3.168-7.991,4.751-11.987C918.755,713.561,917.766,718.066,916.775,722.571z"/>
	<path fill-rule="evenodd" clip-rule="evenodd" fill="#A50C5F" d="M860.269,989.883c0.466,0.963,0.936,1.928,1.403,2.893
		c-0.317,0.176-0.633,0.352-0.949,0.527c-0.478-0.796-0.954-1.592-1.432-2.386C859.616,990.576,859.942,990.228,860.269,989.883z"/>
	<path fill-rule="evenodd" clip-rule="evenodd" fill="#010101" d="M837.438,980.602c-0.187-0.117-0.417-0.263-0.647-0.406
		c0.123-0.127,0.279-0.38,0.36-0.358c0.255,0.071,0.479,0.245,0.716,0.379C837.736,980.334,837.606,980.452,837.438,980.602z"/>
	<path fill-rule="evenodd" clip-rule="evenodd" fill="#5D414C" d="M965.124,762.681c-2.447-6.447-4.912-12.887-7.282-19.361
		c-0.113-0.303,0.617-0.915,0.955-1.384C961.667,748.619,964.673,755.259,965.124,762.681z"/>
	<path fill-rule="evenodd" clip-rule="evenodd" fill="#5D414C" d="M983.981,809.365c-3.774-3.396-5.339-7.898-6.314-12.692
		C981.596,799.993,983.294,804.426,983.981,809.365z"/>
	<path fill-rule="evenodd" clip-rule="evenodd" fill="#5D414C" d="M972.645,782.871c-2.583-3.413-4.688-9.19-5.078-13.945
		C969.26,773.574,970.951,778.222,972.645,782.871z"/>
	<path fill-rule="evenodd" clip-rule="evenodd" fill="#5D414C" d="M977.714,796.739c-1.277-3.392-2.556-6.785-3.833-10.177
		C976.66,789.387,978.192,792.682,977.714,796.739z"/>
	<path fill-rule="evenodd" clip-rule="evenodd" fill="#5D414C" d="M956.263,736.174c-0.845-2.536-1.69-5.075-2.536-7.611
		C956.321,730.514,957.045,733.094,956.263,736.174z"/>
	<path fill-rule="evenodd" clip-rule="evenodd" fill="#5D414C" d="M967.604,768.993c-0.846-2.133-1.688-4.267-2.534-6.4
		C967.158,764.232,968.053,766.346,967.604,768.993z"/>
	<path fill-rule="evenodd" clip-rule="evenodd" fill="#5D414C" d="M957.599,740.61c-0.454-1.497-0.904-2.991-1.356-4.486
		C958.654,737.024,957.681,738.952,957.599,740.61z"/>
	<path fill-rule="evenodd" clip-rule="evenodd" fill="#5D414C" d="M973.937,786.654c-0.443-1.286-0.89-2.571-1.333-3.856
		C973.047,784.083,973.493,785.368,973.937,786.654z"/>
	<path fill-rule="evenodd" clip-rule="evenodd" fill="#5D414C" d="M985.332,811.898c-0.461-0.864-0.926-1.728-1.387-2.592
		C984.406,810.17,984.871,811.034,985.332,811.898z"/>
	<path fill-rule="evenodd" clip-rule="evenodd" fill="#040404" d="M490.457,291.083c0-8.408,0-16.485,0-25.043
		c1.467-0.083,2.849-0.27,4.223-0.22c7.472,0.271,9.465,2.314,9.668,9.976c0.077,2.927,0.126,5.873-0.102,8.788
		c-0.37,4.714-1.912,6.154-6.713,6.474C495.283,291.208,493.014,291.083,490.457,291.083z"/>
	<path fill-rule="evenodd" clip-rule="evenodd" fill="#040404" d="M490.396,253.851c0-7.282,0-14.084,0-20.851
		c10.156-1.348,12.336-0.007,12.696,7.617C503.639,252.213,501.715,254.312,490.396,253.851z"/>
	<path fill-rule="evenodd" clip-rule="evenodd" fill="#040404" d="M786.094,1035.25c0.058,5.218-1.703,7.587-5.714,8.354
		c-3.854,0.738-6.815-0.96-7.857-5.379c-1.487-6.309-2.461-12.741-3.602-19.13c-1.693-9.481-3.34-18.972-5.006-28.459
		c-0.035-0.207-0.05-0.417-0.08-0.625c-0.917-6.108,0.863-9.417,5.48-10.184c4.688-0.778,7.262,1.599,8.381,7.824
		c2.708,15.044,5.398,30.092,8.085,45.141C785.964,1033.819,786.045,1034.864,786.094,1035.25z"/>
	<path fill-rule="evenodd" clip-rule="evenodd" fill="#0B0B0B" d="M820.753,291.169c0-19.998,0-39.052,0-57.971
		c0.594-0.327,0.935-0.67,1.294-0.69c10.667-0.568,12.028,0.721,12.041,11.459c0.016,11.976,0.007,23.951,0.002,35.925
		c-0.002,1.471,0.073,2.954-0.083,4.409c-0.527,4.887-2.299,6.562-7.248,6.85C824.9,291.26,823.029,291.169,820.753,291.169z"/>
	<path fill-rule="evenodd" clip-rule="evenodd" fill="#0B0B0B" d="M908.25,935.476c8.128,8.887,16.255,17.774,24.646,26.948
		c-3.673,2.442-6.753,4.489-10.429,6.934c-5.239-11.166-10.27-21.883-15.298-32.601C907.529,936.332,907.89,935.904,908.25,935.476z
		"/>
	<path fill-rule="evenodd" clip-rule="evenodd" fill="#1A1316" d="M908.25,935.476c-0.36,0.428-0.721,0.855-1.08,1.281
		c-0.319-0.856-0.636-1.713-0.953-2.569C906.895,934.617,907.572,935.045,908.25,935.476z"/>
	<polygon fill-rule="evenodd" clip-rule="evenodd" fill="#1A1316" points="905.096,932.428 905.425,932.245 905.399,932.649 	"/>
	<path fill-rule="evenodd" clip-rule="evenodd" fill="#0B0B0B" d="M881.916,262.103c0,7.56,0.166,15.125-0.058,22.678
		c-0.16,5.436-2.651,7.768-7.149,7.552c-2.836-0.135-4.878-1.398-5.543-4.203c-0.479-2.016-0.751-4.13-0.763-6.202
		c-0.065-13.44-0.056-26.88-0.009-40.32c0.007-1.871,0.122-3.801,0.59-5.599c0.918-3.526,2.874-4.865,6.371-4.796
		c3.414,0.067,5.365,1.561,6.189,5.1c0.373,1.61,0.381,3.329,0.391,5c0.04,6.93,0.017,13.859,0.017,20.789
		C881.94,262.103,881.928,262.103,881.916,262.103z"/>
	<path fill-rule="evenodd" clip-rule="evenodd" fill="#040404" d="M922.467,1158.525c0,4.602,0.12,9.21-0.039,13.807
		c-0.123,3.505-1.723,5.292-4.185,5.035c-2.9-0.304-3.698-2.383-3.705-4.903c-0.022-9.412-0.027-18.826,0.014-28.239
		c0.012-2.545,0.843-4.604,3.872-4.633c2.982-0.029,3.984,1.896,4.014,4.499c0.055,4.812,0.015,9.623,0.015,14.435
		C922.457,1158.525,922.462,1158.525,922.467,1158.525z"/>
	<path fill-rule="evenodd" clip-rule="evenodd" fill="#040404" d="M743.635,1158.709c0,4.394,0.004,8.787-0.002,13.18
		c-0.005,2.702-0.527,5.124-3.8,5.473c-2.428,0.259-4.067-1.544-4.114-5.082c-0.126-9.411-0.149-18.826,0.048-28.236
		c0.076-3.646,2.388-5.244,5.228-4.276c2.18,0.743,2.597,2.544,2.611,4.51c0.034,4.811,0.01,9.622,0.01,14.433
		C743.622,1158.709,743.628,1158.709,743.635,1158.709z"/>
	<path fill-rule="evenodd" clip-rule="evenodd" fill="#0B0B0B" d="M580.96,1154.527c0-4.729,0-9.254,0-14.216
		c2.226-0.542,4.354-0.889,6.153,1.065c1.541,1.672,1.807,8.481,0.499,10.87C586.151,1154.912,583.821,1154.984,580.96,1154.527z"/>
</g>
<path fill="#020202" d="M977.919,269.975c-77.816-23.043-160.755-14.102-240.39-8.357c-20.229,1.459-40.471,2.714-60.738,3.519
	c-20.56,0.817-41.327,0.868-61.566-3.281c-17.715-3.631-32.253-15.186-48.826-21.804c-17.572-7.018-36.27-3.321-54.66-3.163
	c-8.457,0.073-8.463,13.213,0,13.141c2.533-0.021,5.063-0.116,7.588-0.237c0.276,1.815,0.505,3.639,0.708,5.469
	c-27.675-3.923-55.272-9.56-81.336-19.452c-7.926-3.008-11.319,9.699-3.487,12.671c27.571,10.465,56.788,16.04,86.005,20.069
	c0.58,7.079,1.254,14.128,2.856,20.957c-2.313-0.509-4.738,0.288-6.191,3.199l-3.936,7.884c-1.868,3.742-0.034,7.262,2.752,8.942
	c-0.429,3.81-0.945,7.622-1.024,11.458c-0.161,7.762,10.496,8.48,12.885,1.747c1.472-4.147,3.373-8.12,4.904-12.242
	c9.104,12.235,22.12,17.076,38.241,17.423c42.938,0.926,81.032-23.618,123.709-24.011c8.456-0.078,8.463-13.22,0-13.141
	c-39.855,0.366-75.247,21.304-114.671,23.768c-16.207,1.013-31.808-0.565-39.726-16.571c-4.307-8.708-5.829-18.128-6.748-27.703
	c1.877,0.234,3.754,0.466,5.628,0.692c20.575,2.485,40.991,5.076,61.381,8.861c20.769,3.855,41.427,8.285,62.215,12.032
	c8.27,1.491,11.806-11.171,3.488-12.671c-0.989-0.178-1.978-0.361-2.966-0.542c2.62-0.043,5.236-0.106,7.847-0.183
	c20.194-0.592,40.374-1.91,60.524-3.325c80.1-5.627,163.732-15.668,242.043,7.521C982.564,285.055,986.013,272.373,977.919,269.975z
	 M546.217,258.546c-4.341-0.486-8.692-0.998-13.046-1.54c-0.226-2.643-0.477-5.279-0.807-7.895
	c11.238-0.461,22.305-0.108,33.032,4.726c7.072,3.187,13.785,6.887,20.57,10.358C572.783,261.995,559.551,260.041,546.217,258.546z"
	/>
<rect x="497.306" y="215.864" fill="none" stroke="#020202" stroke-miterlimit="10" width="519.541" height="112.08"/>
<rect x="548.473" y="296.022" fill="#020202" width="22.303" height="38.108"/>
<rect x="442.604" y="201.409" fill="#020202" width="563.747" height="126.535"/>
<rect x="319.61" y="327.943" fill="#020202" width="800.96" height="755.673"/>
<path fill-rule="evenodd" clip-rule="evenodd" fill="#FCFCFC" d="M531.329,636.037c11.769,0,22.692-0.332,33.588,0.098
	c10.05,0.396,19.388,10.128,20.519,20.741c0.393,3.688,0.282,7.442,0.276,11.167c-0.008,4.525-0.329,9.055-0.193,13.572
	c0.257,8.604-2.53,15.545-9.515,20.42c-0.471,0.329-0.898,0.727-1.134,0.92c3.021,3.325,6.162,6.356,8.803,9.805
	c2.954,3.856,4.354,8.466,4.349,13.475c-0.01,9.055-0.058,18.11,0.016,27.166c0.078,9.758-4.977,15.344-13.293,17.299
	c-5.933,1.396-12.052,1.948-18.098,2.799c-1.324,0.186-2.69,0.048-4.036,0.049c-6.724,0.002-13.448,0-20.744,0
	c-0.191-1.953-0.51-3.724-0.514-5.495c-0.039-15.769-0.023-31.538-0.023-47.306c0-26.228,0-52.457,0-78.686
	C531.329,640.23,531.329,638.401,531.329,636.037z M552.332,657.048c0,11.997,0,22.969,0,33.886
	c6.412,0.713,11.043-2.158,11.308-7.253c0.348-6.664,0.277-13.359,0.186-20.037c-0.038-2.809-1.282-5.313-4.096-5.985
	C557.364,657.094,554.846,657.227,552.332,657.048z M553.049,750.312c6.037,1.462,9.115-0.129,10.794-5.503
	c0.587-1.882,0.849-3.932,0.924-5.919c0.143-3.725,0.098-7.462,0.029-11.193c-0.14-7.711-3.894-10.959-11.748-10.021
	C553.049,728.47,553.049,739.292,553.049,750.312z"/>
<path fill-rule="evenodd" clip-rule="evenodd" fill="#FA6BA6" d="M877.378,710.656c-3.773,8.083-7.354,16.272-11.363,24.225
	c-6.123,12.146-13.455,23.523-21.549,34.321c-3.402,4.543-5.285,9.292-4.84,15.033c0.059,0.762-0.055,1.539-0.117,2.992
	c-6.822,0.22-13.561,0.075-20.439,0.075c0-1.779,0-3.122,0-3.622c5.117-3.804,9.693-7.206,14.271-10.611
	c3.029-0.713,3.91-3.563,5.166-5.901c2.291-4.262,4.35-8.656,6.504-12.995c0.727-1.157,1.582-2.249,2.16-3.481
	c8.021-17.143,13.527-35.217,18.141-53.617c0.705-3.348,1.412-6.695,2.119-10.045c0.287-0.723,0.576-1.445,0.863-2.168
	c0.277-1.285,0.555-2.57,0.832-3.854c1.277-6.696,2.746-13.36,3.764-20.099c0.74-4.897,0.9-9.892,1.283-14.846
	c0.674-8.754,0.17-17.352-2.746-25.715c-1.779-5.104-5.07-8.305-10.014-9.771c-5.379-2.988-11.313-3.782-17.215-4.511
	c-12.662-1.563-25.35-1.601-37.945,0.537c-8.523,1.447-16.941,3.567-25.449,5.149c-2.898,0.539-5.945,0.66-8.881,0.41
	c-2.49-0.212-4.91-1.242-6.029-4.462c2.717-2.113,5.609-3.639,8.932-3.805c3.115-0.155,6.422-0.492,9.334,0.381
	c3.266,0.978,6.088,0.652,9.135-0.365c14.396-4.802,29.17-7.841,44.119-9.961c3.389-0.481,6.865-0.257,10.297-0.446
	c2.227-0.123,4.463-0.284,6.662-0.638c11.33-1.817,14.582-11.485,9.971-21.312c-2.225-4.741-4.957-9.281-7.902-13.581
	c-3.643-5.318-7.742-10.297-11.658-15.411c-1.176-1.534-2.559-2.331-4.619-2.138c-6.432,0.603-10.998-3.222-15.34-7.434
	c-1.221-1.183-1.674-2.679-0.908-4.233c0.828-1.679,2.41-1.864,3.893-1.193c3.27,1.479,6.617,2.871,9.666,4.765
	c11.564,7.187,20.838,17.149,29.83,27.411c3.422,3.905,6.73,7.92,10.09,11.885c0.262,0.548,0.438,1.168,0.795,1.635
	c4.686,6.104,8.35,12.826,10.756,20.212c1.707,5.239,2.973,10.635,4.436,15.961c0.307,4.027,0.77,8.05,0.893,12.083
	c0.42,13.951-2.428,27.516-4.736,41.129c-0.988,5.813-2.41,11.543-3.574,17.324c-0.27,1.35-0.287,2.756-0.418,4.137
	c-0.572,1.417-1.27,2.793-1.695,4.254c-1.441,4.908-2.768,9.852-4.176,14.769C878.95,705.65,878.146,708.147,877.378,710.656z"/>
<path fill-rule="evenodd" clip-rule="evenodd" fill="#FBFBFB" d="M594.451,637.728c14.881,0,29.173,0,43.756,0
	c0,7.7,0,14.938,0,22.432c-7.37,1.164-14.732-0.603-22.057,1.156c0,9.619,0,18.926,0,28.248c6.084,2.811,12.351,0.508,18.75,1.729
	c0,3.003,0.036,5.782-0.007,8.559c-0.069,4.37-0.185,8.741-0.291,13.111c-0.1,4.13-0.328,4.366-4.497,4.405
	c-3.444,0.031-6.889-0.054-10.332,0.027c-2.734,0.064-3.593,0.705-3.66,3.529c-0.185,7.959-0.223,15.926-0.13,23.885
	c0.036,3.103,0.756,3.655,3.91,3.707c4.94,0.079,9.883-0.008,14.824,0.031c4.011,0.033,4.344,0.369,4.368,4.528
	c0.039,6.367,0.01,12.735,0.01,19.562c-2.457,0.344-4.48,0.855-6.508,0.874c-9.281,0.088-18.563,0.083-27.845,0.009
	c-2.528-0.02-5.053-0.439-7.583-0.594c-1.863-0.113-2.673-1.142-2.698-2.992c-0.011-0.782-0.009-1.563-0.009-2.344
	c-0.001-41.871-0.001-83.742-0.001-125.613C594.451,640.75,594.451,639.523,594.451,637.728z"/>
<path fill-rule="evenodd" clip-rule="evenodd" fill="#FEFEFE" d="M721.966,658.225c-2.105,0.122-3.715,0.283-5.324,0.295
	c-4.939,0.035-9.881-0.04-14.82,0.034c-2.998,0.045-3.953,0.847-3.982,3.732c-0.096,9.059-0.092,18.12-0.004,27.18
	c0.031,3.027,0.547,3.457,3.535,3.5c4.189,0.06,8.381-0.047,12.572-0.045c1.166,0,2.33,0.129,3.387,0.192
	c1.492,4.841,1.588,18.54,0.146,25.271c-2.961,0-6.049,0-9.137,0c-3.109,0-6.219,0-9.76,0c-0.297,3.372-0.729,6.116-0.744,8.86
	c-0.074,12.965-0.033,25.93-0.035,38.896c0,1.541,0,3.084,0,5.105c-6.018,0.825-11.697,1.848-17.527,1.114
	c-1.037-0.131-2.072-0.284-3.111-0.371c-3.688-0.306-3.894-0.483-3.916-4.566c-0.037-7.028-0.01-14.058-0.01-21.088
	c0-34.21,0-68.419,0-102.629c0-1.831,0-3.661,0-5.927c16.535-1.57,32.453,0.623,48.56-0.342
	C723.028,644.589,721.94,651.082,721.966,658.225z"/>
<path fill-rule="evenodd" clip-rule="evenodd" fill="#F1F1F1" d="M896.489,519.343c-1.402,1.318-2.383,2.239-3.574,3.359
	c-4.334-4.81-8.549-9.594-12.873-14.265c-21.48-23.185-45.891-42.208-73.676-56.449c-19.691-10.092-40.363-17.125-61.92-21.127
	c-10.266-1.906-20.662-2.892-31.135-3.45c-9.764-0.521-19.449-0.131-29.125,0.54c-25.515,1.767-50.047,7.926-73.493,18.728
	c-28.334,13.052-53.714,30.602-75.562,53.576c-19.261,20.253-34.238,43.603-45.692,69.445
	c-7.356,16.595-13.011,33.802-16.724,51.697c-2.973,14.33-5.055,28.776-5.197,43.457c-0.085,8.727-0.152,17.477,0.325,26.182
	c0.931,16.987,3.893,33.644,8.369,50.01c6.771,24.754,16.985,47.882,30.359,69.998c-1.148,0.889-2.278,1.765-3.639,2.818
	c-0.763-1.041-1.442-1.82-1.963-2.699c-10.012-16.891-18.341-34.628-24.672-53.375c-5.222-15.461-9.047-31.273-11.354-47.498
	c-1.778-12.506-2.69-25.08-2.581-37.711c0.167-19.054,2.224-37.878,6.592-56.42c10.906-46.301,31.703-86.886,64.081-120.746
	c22.01-23.017,47.604-40.549,76.153-53.46c12.631-5.713,25.56-10.521,39.034-13.585c12.545-2.852,25.198-4.97,38.05-5.497
	c7.463-0.306,14.934-0.638,22.398-0.602c14.215,0.07,28.289,1.798,42.203,4.779c41.719,8.938,78.545,28.336,110.99,56.936
	c6.162,5.43,12.168,11.079,17.928,16.963C885.448,506.723,890.7,512.925,896.489,519.343z"/>
<path fill-rule="evenodd" clip-rule="evenodd" fill="#FBFBFB" d="M795.509,772.384c-7.006,0.949-13.396,0.682-19.756,0.062
	c-0.893-0.087-1.93-1.718-2.359-2.856c-0.408-1.086-0.119-2.461-0.119-3.709c-0.002-33.09-0.002-66.179-0.002-99.268
	c0-0.937,0.014-1.873-0.002-2.81c-0.08-4.138-0.174-4.261-3.992-4.315c-2.842-0.041-5.686,0.052-8.525-0.025
	c-3.199-0.086-3.758-0.523-3.871-3.73c-0.152-4.363-0.215-8.746,0.004-13.104c0.238-4.746,1.307-5.656,5.74-5.66
	c14.66-0.014,29.32-0.014,43.98,0c4.732,0.004,5.082,0.289,5.242,5.285c0.145,4.521,0.125,9.052,0.061,13.576
	c-0.047,3.331-0.336,3.566-3.744,3.641c-2.691,0.059-5.387-0.049-8.076,0.032c-1.434,0.045-2.859,0.335-4.58,0.55
	C795.509,697.568,795.509,734.673,795.509,772.384z"/>
<path fill-rule="evenodd" clip-rule="evenodd" fill="#F0138C" d="M515.384,804.024c-0.7,0.604-1.13,1.034-1.614,1.382
	c-0.602,0.43-1.249,0.79-2.14,1.345c-0.748-1.087-1.469-2.018-2.07-3.026c-14.992-25.138-25.571-52.145-31.44-81.124
	c-2.348-11.598-4-23.302-4.41-35.172c-0.162-4.675-0.627-9.349-0.565-14.019c0.901-68.65,24.858-127.052,72.292-174.628
	c25.852-25.928,56.276-44.283,90.434-55.665c15.387-5.128,31.16-8.512,47.32-10.032c13.01-1.225,26.025-1.459,38.99-0.44
	c32.816,2.58,63.609,12.506,92.369,29.179c27.936,16.192,51.74,37.583,72.344,62.963c0.381,0.471,0.691,1.005,1.238,1.805
	c-1.068,0.979-2.113,1.934-3.404,3.117c-2.656-3.07-5.154-5.931-7.625-8.816c-24.063-28.085-52.297-50.244-85.518-65.224
	c-18.891-8.519-38.576-14.079-59.021-16.852c-14.002-1.899-28.037-2.435-42.072-1.434c-17.02,1.212-33.767,4.342-50.121,9.559
	c-33.738,10.762-63.6,28.646-89.599,53.463c-18.936,18.075-34.367,39.044-46.416,62.713c-8.812,17.309-15.505,35.458-19.923,54.5
	c-3.521,15.175-5.541,30.555-6.288,46.182c-0.419,8.777-0.121,17.481,0.445,26.187c1.156,17.782,4.349,35.198,9.354,52.254
	C494.333,764.001,503.519,784.41,515.384,804.024z"/>
<path fill-rule="evenodd" clip-rule="evenodd" fill="#F1F1F1" d="M878.813,533.682c-0.924,0.961-1.941,2.021-3.037,3.16
	c-5.195-5.883-9.934-11.466-14.893-16.824c-18.559-20.048-39.768-36.316-63.84-48.474c-20.998-10.603-43.031-17.455-66.191-20.549
	c-13.25-1.77-26.523-2.374-39.813-1.432c-13.094,0.928-26.074,2.974-38.807,6.42c-27.661,7.486-52.982,20.044-75.899,37.923
	c-18.965,14.796-35.166,32.323-48.656,52.603c-14.714,22.12-25.287,46.237-31.688,72.306c-3.224,13.131-5.437,26.462-6.032,40.037
	c-0.239,5.447-0.613,10.9-0.566,16.348c0.251,29.152,5.91,57.18,16.449,84.15c5.03,12.873,11.023,25.239,18.078,37.037
	c0.226,0.376,0.298,0.853,0.517,1.507c-1.052,0.797-2.113,1.6-3.597,2.723c-1.496-2.507-2.945-4.803-4.267-7.175
	c-12.399-22.253-21.521-45.871-26.846-71.024c-2.188-10.333-3.93-20.769-4.298-31.372c-0.346-9.967-1.024-19.98-0.461-29.906
	c0.597-10.522,2.129-21.029,3.883-31.428c3.253-19.291,9.476-37.618,17.628-55.249c10.021-21.672,23.026-41.204,38.898-58.616
	c19.15-21.01,41.333-37.714,66.502-50.055c17.936-8.793,36.692-14.834,56.214-18.403c17.33-3.169,34.8-3.812,52.267-2.551
	c24.762,1.788,48.529,8.116,71.293,18.568c34.201,15.706,62.623,39.234,86.482,69.015
	C878.321,532.653,878.427,532.957,878.813,533.682z"/>
<path fill-rule="evenodd" clip-rule="evenodd" fill="#FBFBFB" d="M727.446,703.941c0-19.985,0-39.972,0-59.957
	c0-1.093-0.086-2.197,0.027-3.277c0.307-2.934,1.104-3.768,4.031-3.709c4.932,0.098,9.859,0.434,14.791,0.569
	c1.824,0.051,2.809,1.065,3.146,2.709c0.309,1.509,0.391,3.093,0.391,4.644c0.02,40.439,0.018,80.88,0.006,121.32
	c0,1.246-0.037,2.504-0.213,3.732c-0.273,1.895-1.43,3.377-3.195,3.394c-5.352,0.05-10.705-0.194-16.057-0.363
	c-1.836-0.058-2.598-1.464-2.887-3.051c-0.277-1.519-0.318-3.101-0.318-4.655c-0.02-20.451-0.014-40.902-0.014-61.355
	C727.253,703.941,727.351,703.941,727.446,703.941z"/>
<path fill-rule="evenodd" clip-rule="evenodd" fill="#F61390" d="M824.995,895.747c-4.141-10.673-8.281-21.345-12.561-32.379
	c2.689-1.188,5.113-2.257,8.129-3.588c7.678,19.995,15.307,39.87,23.141,60.273c-3.193,1.385-6.133,2.66-9.32,4.045
	c-8.277-11.704-16.393-23.179-24.51-34.654c-0.346,0.197-0.691,0.396-1.037,0.592c4.137,12.857,9.744,25.155,14.258,38.452
	c-2.424,1.164-4.785,2.297-7.729,3.711c-8.08-20.052-15.361-40.089-23.363-60.416c3.811-1.6,7.455-3.129,11.432-4.8
	c7.059,9.995,13.961,19.766,20.863,29.532c0.342,0.591,0.682,1.182,1.021,1.773c0.227-0.131,0.451-0.261,0.678-0.392
	C825.663,897.179,825.327,896.462,824.995,895.747z M808.708,888.849c0.119-0.112,0.211-0.199,0.305-0.287
	c-0.168-0.1-0.328-0.229-0.51-0.281c-0.059-0.017-0.17,0.172-0.258,0.267C808.409,888.654,808.573,888.762,808.708,888.849z"/>
<path fill-rule="evenodd" clip-rule="evenodd" fill="#F61390" d="M627.479,899.337c3.317-8.852,6.631-17.704,9.956-26.553
	c0.318-0.847,0.697-1.668,1.211-2.888c2.663,1.007,5.129,1.941,8.083,3.059c-7.396,20.304-14.686,40.322-22.107,60.697
	c-3.281-1.229-6.193-2.318-9.481-3.549c1.544-14.816,3.072-29.49,4.601-44.165c-0.366-0.082-0.732-0.164-1.098-0.246
	c-4.823,13.164-9.646,26.326-14.635,39.942c-2.802-1.161-5.344-2.214-8.159-3.379c7.403-20.304,14.67-40.232,22.101-60.607
	c3.798,1.465,7.384,2.85,11.451,4.419c-1.106,11.055-2.217,22.146-3.328,33.239c-0.137,1.257-0.276,2.515-0.414,3.771
	c0.243,0.038,0.485,0.077,0.729,0.115C626.752,901.909,627.116,900.623,627.479,899.337z"/>
<path fill-rule="evenodd" clip-rule="evenodd" fill="#F6F6F6" d="M893.38,609.432c-1.463-5.326-2.729-10.722-4.436-15.961
	c-2.406-7.386-6.07-14.108-10.756-20.212c-0.357-0.467-0.533-1.087-0.795-1.635c5.723-6.971,11.17-14.217,17.238-20.845
	c8.063-8.807,16.795-16.881,27.756-21.736c2.971-1.316,5.986-2.833,9.859-0.479c-1.104,1.699-1.795,3.492-3.051,4.561
	c-4.309,3.665-8.926,6.91-14.73,7.219c-1.67,0.09-2.748,0.722-3.785,1.948c-6.328,7.48-12.561,15.036-17.32,23.754
	c-1.027,1.889-1.916,3.864-2.805,5.833c-4.99,11.06,2.527,20.075,12.045,21.551c4.41,0.685,8.92,0.646,13.381,1.026
	c15.506,1.319,30.836,3.542,45.229,10.205c2.01,0.932,3.854,1.078,6.035,0.666c5.268-0.997,10.605-2.039,15.949-0.451
	c2.26,0.672,4.637,1.268,6.018,4.367c-1.104,0.525-2.045,1.211-3.072,1.424c-7.01,1.456-14.01,0.213-20.945-0.56
	c-13.023-1.452-25.961-3.782-38.998-5.022c-8.734-0.832-17.631-1.1-26.242,1.582C897.7,607.369,895.567,608.499,893.38,609.432z"/>
<path fill-rule="evenodd" clip-rule="evenodd" fill="#F76AA4" d="M888.194,688.389c0.129-2.475-0.047-5.016,0.441-7.411
	c1.945-9.573,4.098-19.102,6.404-29.707c0.834,2.922,1.518,4.914,1.971,6.961c5.723,25.802,11.453,51.601,17.086,77.424
	c2.283,10.475,4.385,20.994,6.467,31.516c1.186,5.996,4.799,9.907,9.666,12.783c1.682,0.991,3.52,1.692,5.443,2.602
	c0.08,0.69,0.242,1.449,0.24,2.207c0,0.755-0.16,1.51-0.299,2.657c-5.801-0.104-11.498,1.101-17.168-0.562
	c0.014-8.077-1.662-15.822-4.223-23.395c-0.328-0.643-0.66-1.284-0.99-1.926l0.027,0.043c-0.492-3.67-1.703-6.966-4.506-9.434
	l0.033,0.05c0.342-3.015-0.752-5.464-2.734-7.563l0.039,0.068c-0.316-0.957-0.635-1.912-0.951-2.867l0.029,0.055
	c-1.207-3.455-2.414-6.909-3.623-10.364l0.027,0.05c0.32-1.967-0.318-3.538-1.809-4.756l0.039,0.065
	c-0.322-5.517-2.467-10.452-4.514-15.419c-0.285-0.328-0.57-0.656-0.855-0.984c0.059-1.232,0.754-2.666-0.967-3.335l0.014,0.038
	c0.559-2.289,0.043-4.207-1.809-5.657l0.021,0.034C891.962,696.756,889.886,692.628,888.194,688.389z"/>
<path fill-rule="evenodd" clip-rule="evenodd" fill="#F61390" d="M766.657,945.152c-6.564,0.148-11-2.677-12.986-8.615
	c-1.412-4.222-2.055-8.742-2.85-13.167c-1.541-8.569-3.051-17.148-4.375-25.756c-0.918-5.976-0.281-11.673,4.898-15.542
	c4.352-3.251,9.338-4.152,14.516-2.855c4.773,1.194,7.885,4.58,8.99,9.489c1.428,6.358,2.48,12.812,3.594,19.243
	c1.063,6.128,1.85,12.309,3.012,18.413C783.874,939.076,775.526,945.287,766.657,945.152z M772.075,929.464
	c-0.035-0.287-0.094-1.063-0.223-1.827c-1.918-11.185-3.838-22.368-5.77-33.55c-0.799-4.627-2.635-6.394-5.979-5.814
	c-3.295,0.569-4.564,3.028-3.91,7.568c0.021,0.154,0.031,0.311,0.057,0.465c1.189,7.051,2.363,14.104,3.572,21.151
	c0.813,4.748,1.508,9.528,2.568,14.218c0.744,3.284,2.857,4.546,5.607,3.997C770.86,935.103,772.116,933.342,772.075,929.464z"/>
<path fill-rule="evenodd" clip-rule="evenodd" fill="#F61390" d="M592.315,846.836c2.801,1.917,5.156,3.527,7.9,5.403
	c-2.831,4.583-5.555,9-8.287,13.413c-5.759,9.306-11.514,18.612-17.291,27.905c-0.73,1.175-1.516,2.325-2.388,3.388
	c-3.475,4.24-7.809,6.454-13.139,4.898c-5.722-1.671-10.357-5.038-12.102-11.334c-1.244-4.492,0.195-8.648,2.519-12.445
	c5.796-9.468,11.646-18.899,17.486-28.34c2.823-4.565,5.67-9.117,8.682-13.956c2.792,1.839,5.278,3.477,8.023,5.284
	c-0.601,1.222-1.041,2.331-1.653,3.326c-7.763,12.601-15.552,25.182-23.328,37.772c-0.566,0.917-1.185,1.814-1.621,2.797
	c-1.34,3.013-0.72,5.187,1.84,6.791c2.377,1.491,4.434,1.185,6.25-1.391c2.123-3.01,3.979-6.227,5.929-9.367
	C578.125,869.725,585.105,858.461,592.315,846.836z"/>
<path fill-rule="evenodd" clip-rule="evenodd" fill="#F61390" d="M898.896,885.896c-2.994,2.056-5.449,3.741-8.156,5.601
	c-2.816-3.135-5.443-6.06-8.32-9.263c-2.963,2.031-5.783,3.962-9.02,6.18c1.668,3.892,3.277,7.649,5.035,11.752
	c-2.377,1.65-4.682,3.25-7.492,5.199c-8.834-20.132-17.494-39.871-26.26-59.847c3.674-2.581,7.117-5,11.051-7.765
	C869.989,853.656,884.22,869.526,898.896,885.896z M858.458,856.262c3.588,7.966,7.176,15.931,10.914,24.229
	c2.623-1.816,4.82-3.338,7.441-5.153c-5.988-6.817-11.785-13.423-17.586-20.028c-0.482-0.32-0.967-0.639-1.449-0.957
	C858.005,854.99,858.229,855.626,858.458,856.262z M856.978,853.045l0.217,0.164l0.018-0.301L856.978,853.045z"/>
<path fill-rule="evenodd" clip-rule="evenodd" fill="#F8F8F8" d="M868.292,684.861c-0.285,0.723-0.574,1.445-0.861,2.168
	c-1.129,2.971-2.26,5.939-3.391,8.908c-5.467,15.98-10.98,31.945-16.367,47.955c-1.125,3.34-1.787,6.849-2.662,10.28
	c-2.154,4.339-4.213,8.733-6.504,12.995c-1.256,2.339-2.137,5.188-5.166,5.901c1.078-5.782,2.031-11.595,3.254-17.347
	c5.555-26.118,11.107-52.236,16.834-78.314c1.631-7.423,3.832-14.711,5.809-22.049c0.227-0.841,0.682-1.614,1.316-3.08
	c0.365,1.24,0.529,1.791,0.693,2.343c0.314,2.442,0.529,4.901,0.963,7.32c1.141,6.38,2.264,12.769,3.658,19.089
	C866.171,682.4,865.874,684.726,868.292,684.861z"/>
<path fill-rule="evenodd" clip-rule="evenodd" fill="#F61390" d="M691.024,904.484c-3.434-0.535-6.182-0.965-9.283-1.447
	c0.33-2.657,0.605-5.068,0.939-7.471c0.504-3.636-0.639-5.905-3.34-6.517c-3.225-0.73-5.445,0.8-6.029,4.505
	c-1.887,11.972-3.729,23.951-5.416,35.956c-0.238,1.692-0.105,4.106,0.87,5.198c3.202,3.584,7.12,1.732,8.096-1.787
	c0.494-1.787,0.719-3.657,1.055-5.492c0.309-1.679,0.604-3.361,1.006-5.613c2.725,0.35,5.447,0.7,8.789,1.129
	c-0.535,6.729-0.756,13.317-5.102,18.818c-1.801,2.282-4.248,3.304-6.949,3.922c-9.726,2.223-18.142-4.482-17.596-14.754
	c0.402-7.58,1.86-15.105,2.937-22.643c0.768-5.383,1.662-10.747,2.535-16.112c0.671-4.124,2.123-7.944,5.521-10.354
	c5.222-3.706,10.843-3.012,16.234-0.477c4.875,2.292,6.906,6.751,6.791,12.156C692.011,896.885,691.452,900.256,691.024,904.484z"/>
<path fill-rule="evenodd" clip-rule="evenodd" fill="#F61390" d="M542.171,841.167c-2.9,2.767-4.871,4.646-7.143,6.813
	c-2.866-2.759-5.801-5.582-8.989-8.65c-6.172,6.641-12.268,13.202-18.712,20.138c-2.362-2.305-4.586-4.478-7.172-6.999
	c14.511-15.745,28.749-31.194,43.189-46.863c6.313,6.291,12.346,12.301,18.643,18.575c-2.276,1.834-4.487,3.616-7.167,5.776
	c-2.74-2.693-6.486-6.375-10.135-9.962c-4.105,3.983-8.12,7.88-12.546,12.174C535.534,835.213,538.54,837.91,542.171,841.167z"/>
<path fill-rule="evenodd" clip-rule="evenodd" fill="#F61390" d="M921.905,851.58c3.777-3.953,7.336-7.682,10.883-11.394
	c2.127,2.524,3.947,4.684,6.131,7.271c-5.148,5.525-11.033,11.842-17.158,18.418c-14.916-15.201-29.643-30.207-44.568-45.418
	c2.426-2.411,4.656-4.63,7.125-7.085C896.802,826.063,909.382,838.85,921.905,851.58z"/>
<path fill-rule="evenodd" clip-rule="evenodd" fill="#FBFBFB" d="M861.413,610.576c4.943,1.467,8.234,4.668,10.014,9.771
	c2.916,8.363,3.42,16.961,2.746,25.715c-0.383,4.954-0.543,9.948-1.283,14.846c-1.018,6.738-2.486,13.402-3.762,20.1
	c-0.252-0.543-0.605-1.062-0.742-1.635c-1.982-8.273-3.934-16.555-5.893-24.834c-0.785-8.01-1.98-16.006-2.227-24.035
	C860.065,623.88,860.989,617.22,861.413,610.576z"/>
<path fill-rule="evenodd" clip-rule="evenodd" fill="#F61390" d="M723.894,948.599c-3.533,0-6.453,0-9.781,0
	c0-21.603,0-43.046,0-64.783c2.85,0,5.779,0,9.303,0C724.106,905.155,723.772,926.59,723.894,948.599z"/>
<path fill-rule="evenodd" clip-rule="evenodd" fill="#F76AA4" d="M860.218,576.548c0.033,6.521-4.486,11.589-10.414,11.674
	c-6.02,0.089-11.018-5.271-10.939-11.729c0.072-6.073,5.264-11.711,10.754-11.678C855.284,564.849,860.185,570.273,860.218,576.548z
	"/>
<path fill-rule="evenodd" clip-rule="evenodd" fill="#FBFBFB" d="M894.208,576.64c-0.443-6.074,3.953-11.629,10.342-11.663
	c6.752-0.035,10.891,5.672,10.729,11.878c-0.168,6.412-4.809,11.413-10.732,11.368C898.562,588.178,894.196,583.29,894.208,576.64z"
	/>
</svg>
